<?xml version="1.0" encoding="UTF-8"?>
<svg width="2048" height="2048" version="1.1" viewBox="0 0 542 542" xmlns="http://www.w3.org/2000/svg" xmlns:cc="http://creativecommons.org/ns#" xmlns:dc="http://purl.org/dc/elements/1.1/" xmlns:rdf="http://www.w3.org/1999/02/22-rdf-syntax-ns#">
 <metadata>
  <rdf:RDF>
   <cc:Work rdf:about="">
    <dc:format>image/svg+xml</dc:format>
    <dc:type rdf:resource="http://purl.org/dc/dcmitype/StillImage"/>
    <dc:title/>
    <dc:creator>
     <cc:Agent>
      <dc:title>Cagatay Aydin</dc:title>
     </cc:Agent>
    </dc:creator>
    <dc:publisher>
     <cc:Agent>
      <dc:title>https://www.kmotoko.com</dc:title>
     </cc:Agent>
    </dc:publisher>
    <cc:license rdf:resource="http://creativecommons.org/licenses/by/4.0/"/>
   </cc:Work>
   <cc:License rdf:about="http://creativecommons.org/licenses/by/4.0/">
    <cc:permits rdf:resource="http://creativecommons.org/ns#Reproduction"/>
    <cc:permits rdf:resource="http://creativecommons.org/ns#Distribution"/>
    <cc:requires rdf:resource="http://creativecommons.org/ns#Notice"/>
    <cc:requires rdf:resource="http://creativecommons.org/ns#Attribution"/>
    <cc:permits rdf:resource="http://creativecommons.org/ns#DerivativeWorks"/>
   </cc:License>
  </rdf:RDF>
 </metadata>
 <path d="m0.0473 0.0473h542v542h-542z" fill="#fff" stroke="#fff" stroke-width=".0946"/>
 <g stroke-width=".26464844">
  <g transform="rotate(-90)" style="font-feature-settings:normal;font-variant-caps:normal;font-variant-ligatures:normal;font-variant-numeric:normal" aria-label="Linux kernel">
   <g>
    <path d="m-527.80861 92.265518v-62.974614h10.29476v54.144384h26.66298v8.83023z" style="font-feature-settings:normal;font-variant-caps:normal;font-variant-ligatures:normal;font-variant-numeric:normal"/>
    <path d="m-470.8644 92.265518h-10.12245v-47.640166h10.12245zm-10.72549-60.260933q0-2.713681 1.46452-4.178206 1.5076-1.464526 4.26436-1.464526 2.6706 0 4.13513 1.464526 1.5076 1.464525 1.5076 4.178206 0 2.584457-1.5076 4.092057-1.46453 1.464526-4.13513 1.464526-2.75676 0-4.26436-1.464526-1.46452-1.5076-1.46452-4.092057z" style="font-feature-settings:normal;font-variant-caps:normal;font-variant-ligatures:normal;font-variant-numeric:normal"/>
    <path d="m-414.43707 92.265518h-10.16554v-29.290518q0-5.513509-2.23986-8.227189-2.19679-2.713681-7.02111-2.713681-6.41807 0-9.39019 3.790538-2.97213 3.790537-2.97213 12.706916v23.733934h-10.12246v-47.640166h7.92567l1.42145 6.245772h0.51689q2.15372-3.402869 6.11655-5.255063 3.96284-1.852195 8.78716-1.852195 17.14357 0 17.14357 17.445088z" style="font-feature-settings:normal;font-variant-caps:normal;font-variant-ligatures:normal;font-variant-numeric:normal"/>
    <path d="m-366.75383 92.265518-1.42145-6.245772h-0.51689q-2.11064 3.31672-6.0304 5.211989-3.87669 1.895269-8.87331 1.895269-8.65793 0-12.92228-4.307429-4.26436-4.307429-4.26436-13.05151v-31.142713h10.20861v29.376667q0 5.470435 2.23986 8.227189 2.23986 2.713681 7.02111 2.713681 6.375 0 9.34712-3.790538 3.0152-3.833612 3.0152-12.793064v-23.733935h10.16554v47.640166z" style="font-feature-settings:normal;font-variant-caps:normal;font-variant-ligatures:normal;font-variant-numeric:normal"/>
    <path d="m-333.75893 67.928544-15.98057-23.303192h11.54391l10.85473 16.669751 10.94087-16.669751h11.45776l-16.02364 23.303192 16.84205 24.336974h-11.45776l-11.75928-17.832756-11.71621 17.832756h-11.45776z" style="font-feature-settings:normal;font-variant-caps:normal;font-variant-ligatures:normal;font-variant-numeric:normal"/>
   </g>
   <g fill="#d33682" stroke-width=".26464844">
    <path d="m-263.074 67.110132 5.72888-7.150332 14.38681-15.334448h11.67313l-19.16806 20.460288 20.37414 27.179878h-11.8885l-15.29137-20.891031-5.55659 4.565875v16.325156h-10.03631v-67.023597h10.03631v32.693387l-0.51689 9.174824z" style="font-feature-settings:normal;font-variant-caps:normal;font-variant-ligatures:normal;font-variant-numeric:normal"/>
    <path d="m-201.56392 93.127004q-11.11317 0-17.40202-6.461144-6.24577-6.504218-6.24577-17.875831 0-11.673132 5.81503-18.349648 5.81503-6.676515 15.98056-6.676515 9.43327 0 14.90371 5.728881 5.47043 5.728881 5.47043 15.765191v5.470435h-31.74575q0.21537 6.93496 3.74746 10.682424 3.5321 3.704389 9.95017 3.704389 4.22128 0 7.83952-0.775337 3.66131-0.818412 7.83952-2.670606v8.227189q-3.70439 1.766046-7.49493 2.498309t-8.65793 0.732263zm-1.8522-41.695914q-4.82432 0-7.75337 3.058275-2.88598 3.058274-3.44594 8.916378h21.62329q-0.0862-5.901178-2.8429-8.916378-2.75676-3.058275-7.58108-3.058275z" style="font-feature-settings:normal;font-variant-caps:normal;font-variant-ligatures:normal;font-variant-numeric:normal"/>
    <path d="m-147.37646 43.763866q3.05827 0 5.03969 0.430743l-0.99071 9.43327q-2.15371-0.516892-4.47972-0.516892-6.07348 0-9.86402 3.962835-3.74746 3.962835-3.74746 10.294756v24.89694h-10.12246v-47.640166h7.92567l1.33531 8.399487h0.51689q2.36908-4.264355 6.15962-6.762664 3.83361-2.498309 8.22719-2.498309z" style="font-feature-settings:normal;font-variant-caps:normal;font-variant-ligatures:normal;font-variant-numeric:normal"/>
    <path d="m-91.552185 92.265518h-10.165535v-29.290518q0-5.513509-2.23986-8.227189-2.19679-2.713681-7.02111-2.713681-6.41807 0-9.3902 3.790538-2.97212 3.790537-2.97212 12.706916v23.733934h-10.12246v-47.640166h7.92567l1.42145 6.245772h0.51689q2.15372-3.402869 6.11655-5.255063 3.96284-1.852195 8.78716-1.852195 17.143565 0 17.143565 17.445088z" style="font-feature-settings:normal;font-variant-caps:normal;font-variant-ligatures:normal;font-variant-numeric:normal"/>
    <path d="m-56.662006 93.127004q-11.113167 0-17.402013-6.461144-6.245772-6.504218-6.245772-17.875831 0-11.673132 5.815029-18.349648 5.815029-6.676515 15.980562-6.676515 9.43327 0 14.903705 5.728881t5.470435 15.765191v5.470435h-31.745753q0.215371 6.93496 3.747463 10.682424 3.532092 3.704389 9.950162 3.704389 4.22128 0 7.839521-0.775337 3.661314-0.818412 7.839521-2.670606v8.227189q-3.704389 1.766046-7.494927 2.498309t-8.657933 0.732263zm-1.852194-41.695914q-4.824321 0-7.753373 3.058275-2.885977 3.058274-3.445943 8.916378h21.623294q-0.08615-5.901178-2.842903-8.916378-2.756754-3.058275-7.581075-3.058275z" style="font-feature-settings:normal;font-variant-caps:normal;font-variant-ligatures:normal;font-variant-numeric:normal"/>
    <path d="m-16.516763 92.265518h-10.122458v-67.023597h10.122458z" style="font-feature-settings:normal;font-variant-caps:normal;font-variant-ligatures:normal;font-variant-numeric:normal"/>
   </g>
  </g>
  <g style="font-feature-settings:normal;font-variant-caps:normal;font-variant-ligatures:normal;font-variant-numeric:normal" aria-label="BPF-JIT">
   <g fill="#d33682">
    <path d="m116.68824 236.66243h20.93755q14.56944 0 21.03403 4.24541 6.51284 4.2454 6.51284 13.41161 0 6.17513-3.18405 10.2758-3.18406 4.10067-9.16621 5.16202v0.48243q7.42945 1.39906 10.90296 5.54797 3.52176 4.10068 3.52176 11.14418 0 9.50392-6.65757 14.90715-6.60932 5.355-18.4289 5.355h-25.47241zm11.53012 29.1389h11.09594q7.23648 0 10.56526-2.26743 3.32878-2.31568 3.32878-7.8154 0-4.96905-3.61824-7.18824-3.57-2.21919-11.38539-2.21919h-9.98635zm0 9.35918v22.33661h12.25378q7.23648 0 10.90296-2.74987 3.71473-2.7981 3.71473-8.78026 0-5.49973-3.76297-8.1531-3.76297-2.65338-11.43364-2.65338z"/>
    <path d="m228.61247 257.98593q0 11.04769-7.23648 16.93337-7.23648 5.88567-20.59985 5.88567h-7.33296v26.38903h-11.53013v-70.53157h20.31039q13.21864 0 19.77971 5.40324 6.60932 5.40324 6.60932 15.92026zm-35.16929 13.12215h6.12688q8.87675 0 13.02567-3.08756 4.14892-3.08757 4.14892-9.64864 0-6.07865-3.71473-9.06973t-11.57837-2.99108h-8.00837z"/>
    <path d="m254.13313 307.194h-11.43364v-70.53157h39.80064v9.74513h-28.367v22.04715h26.582v9.79337h-26.582z"/>
   </g>
   <g stroke-width=".26464844">
    <path d="m289.54365 285.5328v-9.64864h24.79701v9.64864z" style="font-feature-settings:normal;font-variant-caps:normal;font-variant-ligatures:normal;font-variant-numeric:normal"/>
    <path d="m318.2966 326.87723q-4.72784 0-7.91189-1.20608v-9.69689q4.05243 1.01311 7.04351 1.01311 9.45567 0 9.45567-11.96431v-68.36063h11.57837v67.97468q0 10.80648-5.16203 16.49918-5.11377 5.74094-15.00363 5.74094z" style="font-feature-settings:normal;font-variant-caps:normal;font-variant-ligatures:normal;font-variant-numeric:normal"/>
    <path d="m356.74643 307.194v-70.53157h11.53013v70.53157z" style="font-feature-settings:normal;font-variant-caps:normal;font-variant-ligatures:normal;font-variant-numeric:normal"/>
    <path d="m411.21301 307.194h-11.53013v-60.64171h-20.74457v-9.88986h53.01928v9.88986h-20.74458z" style="font-feature-settings:normal;font-variant-caps:normal;font-variant-ligatures:normal;font-variant-numeric:normal"/>
   </g>
  </g>
  <g fill="#d33682" style="font-feature-settings:normal;font-variant-caps:normal;font-variant-ligatures:normal;font-variant-numeric:normal" aria-label="YAMA">
   <path d="m187.89727 491.23537 14.90371-28.73055h11.19931l-20.97718 38.55149v24.42312h-10.33783v-24.07853l-20.89103-38.89608h11.19932z" style="font-feature-settings:normal;font-variant-caps:normal;font-variant-ligatures:normal;font-variant-numeric:normal"/>
   <path d="m261.38201 525.47943-6.28885-17.48816h-24.07853l-6.15962 17.48816h-10.85472l23.56164-63.23306h11.19931l23.56164 63.23306zm-9.00253-26.36147-5.90117-17.14356q-0.64612-1.72297-1.80912-5.42736-1.11994-3.70439-1.55068-5.42736-1.16301 5.29813-3.40287 11.58698l-5.6858 16.4113z" style="font-feature-settings:normal;font-variant-caps:normal;font-variant-ligatures:normal;font-variant-numeric:normal"/>
   <path d="m307.94532 525.47943-18.2635-52.59371h-0.3446q0.73227 11.71621 0.73227 21.96789v30.62582h-9.34712v-62.97461h14.51603l17.48816 50.0954h0.25845l18.00505-50.0954h14.55911v62.97461h-9.90708v-31.14271q0-4.6951 0.21537-12.2331 0.25844-7.538 0.43074-9.13175h-0.34459l-18.90962 52.50756z" style="font-feature-settings:normal;font-variant-caps:normal;font-variant-ligatures:normal;font-variant-numeric:normal"/>
   <path d="m401.2873 525.47943-6.28885-17.48816h-24.07853l-6.15962 17.48816h-10.85472l23.56164-63.23306h11.19931l23.56164 63.23306zm-9.00253-26.36147-5.90118-17.14356q-0.64611-1.72297-1.80912-5.42736-1.11993-3.70439-1.55067-5.42736-1.16301 5.29813-3.40287 11.58698l-5.68581 16.4113z" style="font-feature-settings:normal;font-variant-caps:normal;font-variant-ligatures:normal;font-variant-numeric:normal"/>
  </g>
 </g>
 <g stroke-width=".26464844">
  <g style="font-feature-settings:normal;font-variant-caps:normal;font-variant-ligatures:normal;font-variant-numeric:normal" aria-label="ExecShield">
   <g stroke-width=".26464844">
    <path d="m151.36028 78.371773h-32.77264v-57.936641h32.77264v8.004925h-23.30147v15.772082h21.83522v7.925669h-21.83522v18.189411h23.30147z" style="font-feature-settings:normal;font-variant-caps:normal;font-variant-ligatures:normal;font-variant-numeric:normal"/>
    <path d="m172.68033 55.981758-14.70211-21.438935h10.62039l9.98635 15.336169 10.06559-15.336169h10.54114l-14.74174 21.438935 15.49468 22.390015h-10.54114l-10.81853-16.406135-10.77891 16.406135h-10.54114z" style="font-feature-settings:normal;font-variant-caps:normal;font-variant-ligatures:normal;font-variant-numeric:normal"/>
    <path d="m226.77302 79.16434q-10.22411 0-16.00985-5.944252-5.74611-5.98388-5.74611-16.445764 0-10.739281 5.34983-16.881675 5.34982-6.142393 14.70211-6.142393 8.67861 0 13.71141 5.27057t5.0328 14.503974v5.0328h-29.20609q0.19814 6.380164 3.44766 9.82783 3.24953 3.408037 9.15415 3.408037 3.88358 0 7.21236-0.71331 3.36841-0.752938 7.21236-2.456957v7.569014q-3.40804 1.624762-6.89533 2.298444-3.4873 0.673682-7.9653 0.673682zm-1.70402-38.360239q-4.43837 0-7.1331 2.813613-2.6551 2.813612-3.17027 8.203067h19.89343q-0.0793-5.429083-2.61547-8.203067-2.53621-2.813613-6.97459-2.813613z" style="font-feature-settings:normal;font-variant-caps:normal;font-variant-ligatures:normal;font-variant-numeric:normal"/>
    <path d="m272.06823 79.16434q-9.94671 0-15.13803-5.785739-5.15168-5.825367-5.15168-16.683533 0-11.056309 5.38945-17.00056 5.42909-5.944252 15.6532-5.944252 6.93496 0 12.48293 2.575842l-2.81361 7.489757q-5.90463-2.298444-9.74858-2.298444-11.37333 0-11.37333 15.0984 0 7.370872 2.81361 11.095937 2.85324 3.685436 8.32195 3.685436 6.22165 0 11.76962-3.091011v8.123811q-2.49658 1.466249-5.34982 2.100302-2.81362 0.634054-6.85571 0.634054z" style="font-feature-settings:normal;font-variant-caps:normal;font-variant-ligatures:normal;font-variant-numeric:normal"/>
   </g>
   <g fill="#d33682">
    <path d="m329.05378 62.63932q0 7.727527-5.58759 12.126273-5.5876 4.398747-15.41543 4.398747t-16.08911-3.051383v-8.956006q3.96284 1.862532 8.40121 2.932498 4.478 1.069965 8.32195 1.069965 5.62723 0 8.28233-2.139931 2.69473-2.13993 2.69473-5.74611 0-3.249524-2.45696-5.50834t-10.14486-5.349827q-7.92567-3.209896-11.17519-7.331243-3.24953-4.121348-3.24953-9.907087 0-7.251987 5.15169-11.412963 5.15168-4.160977 13.83029-4.160977 8.32195 0 16.56465 3.645808l-3.01175 7.727528q-7.72753-3.249525-13.79067-3.249525-4.59689 0-6.97459 2.021046-2.3777 1.981417-2.3777 5.27057 0 2.258815 0.95108 3.883578 0.95108 1.585133 3.13064 3.011754 2.17956 1.42662 7.84641 3.764693 6.38017 2.655099 9.35229 4.953543 2.97213 2.298444 4.35912 5.191313t1.38699 6.816076z" style="font-feature-settings:normal;font-variant-caps:normal;font-variant-ligatures:normal;font-variant-numeric:normal"/>
    <path d="m377.91553 78.371773h-9.35228v-26.947275q0-5.072428-2.06068-7.569014-2.02104-2.496586-6.45942-2.496586-5.86499 0-8.63898 3.526923-2.73435 3.487294-2.73435 11.72999v21.755962h-9.31267v-61.661706h9.31267v15.653197q0 3.764692-0.47554 8.044554h0.59442q1.90216-3.170268 5.27057-4.913915 3.40804-1.743647 7.92567-1.743647 15.93059 0 15.93059 16.04948z" style="font-feature-settings:normal;font-variant-caps:normal;font-variant-ligatures:normal;font-variant-numeric:normal"/>
    <path d="m400.18666 78.371773h-9.31266v-43.82895h9.31266zm-9.86746-55.440056q0-2.496585 1.34737-3.843949 1.38699-1.347364 3.9232-1.347364 2.45696 0 3.80432 1.347364 1.387 1.347364 1.387 3.843949 0 2.377701-1.387 3.764693-1.34736 1.347364-3.80432 1.347364-2.53621 0-3.9232-1.347364-1.34737-1.386992-1.34737-3.764693z" style="font-feature-settings:normal;font-variant-caps:normal;font-variant-ligatures:normal;font-variant-numeric:normal"/>
    <path d="m432.68191 79.16434q-10.22411 0-16.00985-5.944252-5.74611-5.98388-5.74611-16.445764 0-10.739281 5.34983-16.881675 5.34982-6.142393 14.70211-6.142393 8.67861 0 13.71141 5.27057t5.0328 14.503974v5.0328h-29.20609q0.19814 6.380164 3.44766 9.82783 3.24953 3.408037 9.15415 3.408037 3.88358 0 7.21236-0.71331 3.36841-0.752938 7.21236-2.456957v7.569014q-3.40804 1.624762-6.89533 2.298444-3.4873 0.673682-7.9653 0.673682zm-1.70402-38.360239q-4.43837 0-7.1331 2.813613-2.6551 2.813612-3.17027 8.203067h19.89343q-0.0793-5.429083-2.61547-8.203067-2.53621-2.813613-6.97459-2.813613z" style="font-feature-settings:normal;font-variant-caps:normal;font-variant-ligatures:normal;font-variant-numeric:normal"/>
    <path d="m469.61553 78.371773h-9.31267v-61.661706h9.31267z" style="font-feature-settings:normal;font-variant-caps:normal;font-variant-ligatures:normal;font-variant-numeric:normal"/>
    <path d="m497.75166 79.16434q-8.20307 0-12.79996-5.944252t-4.59689-16.683534q0-10.77891 4.63652-16.76279 4.67614-6.023508 12.91884-6.023508 8.63898 0 13.15661 6.380163h0.47554q-0.67368-4.715773-0.67368-7.450129v-15.970223h9.35229v61.661706h-7.29162l-1.62476-5.74611h-0.43591q-4.478 6.538677-13.11698 6.538677zm2.49658-7.529386q5.74611 0 8.36158-3.209896 2.61547-3.249524 2.69473-10.501512v-1.307735q0-8.282324-2.69473-11.769619-2.69472-3.487294-8.44083-3.487294-4.91392 0-7.56902 4.002463-2.6551 3.962835-2.6551 11.333707 0 7.291615 2.57584 11.135565 2.57585 3.804321 7.72753 3.804321z" style="font-feature-settings:normal;font-variant-caps:normal;font-variant-ligatures:normal;font-variant-numeric:normal"/>
   </g>
  </g>
  <g transform="rotate(90)" style="font-feature-settings:normal;font-variant-caps:normal;font-variant-ligatures:normal;font-variant-numeric:normal" aria-label="security">
   <path d="m168.41233-465.43559q0 8.37365-6.09932 12.8706-6.09932 4.44527-17.47093 4.44527-11.4233 0-18.34965-3.46317v-10.4929q10.07939 4.65202 18.76316 4.65202 11.21655 0 11.21655-6.77128 0-2.17094-1.24054-3.61824-1.24054-1.44729-4.08344-2.99797-2.84291-1.55067-7.90844-3.51486-9.87263-3.825-13.38749-7.64999-3.46318-3.825-3.46318-9.92432 0-7.33986 5.89257-11.37161 5.94425-4.08344 16.12701-4.08344 10.07938 0 19.0733 4.08344l-3.92838 9.14898q-9.25236-3.825-15.55843-3.825-9.61418 0-9.61418 5.47905 0 2.68784 2.48107 4.54865 2.53277 1.8608 10.9581 5.11722 7.08142 2.73953 10.28614 5.01385 3.20473 2.27432 4.75541 5.27229 1.55067 2.94628 1.55067 7.08141z" style="font-feature-settings:normal;font-variant-caps:normal;font-variant-ligatures:normal;font-variant-numeric:normal"/>
   <path d="m206.45554-448.11972q-13.3358 0-20.88241-7.75337-7.49493-7.80506-7.49493-21.451 0-14.00776 6.97804-22.01958 6.97803-8.01181 19.17667-8.01181 11.31992 0 17.88445 6.87465 6.56452 6.87466 6.56452 18.91823v6.56452h-38.0949q0.25844 8.32196 4.49695 12.81891 4.23851 4.44527 11.94019 4.44527 5.06554 0 9.40743-0.93041 4.39358-0.98209 9.40742-3.20472v9.87262q-4.44526 2.11926-8.99391 2.99797-4.54864 0.87872-10.38952 0.87872zm-2.22263-50.0351q-5.78918 0-9.30405 3.66993-3.46317 3.66993-4.13513 10.69966h25.94795q-0.10337-7.08142-3.41148-10.69966-3.30811-3.66993-9.09729-3.66993z" style="font-feature-settings:normal;font-variant-caps:normal;font-variant-ligatures:normal;font-variant-numeric:normal"/>
   <path d="m265.53624-448.11972q-12.97398 0-19.74525-7.54662-6.71959-7.5983-6.71959-21.76113 0-14.42127 7.02972-22.17464 7.08141-7.75337 20.41721-7.75337 9.0456 0 16.28209 3.35979l-3.66993 9.76925q-7.70169-2.99797-12.71553-2.99797-14.83479 0-14.83479 19.69356 0 9.61419 3.66993 14.47297 3.72162 4.80709 10.85472 4.80709 8.1152 0 15.35168-4.03176v10.59628q-3.25642 1.9125-6.97804 2.73952-3.66993 0.82703-8.94222 0.82703z" style="font-feature-settings:normal;font-variant-caps:normal;font-variant-ligatures:normal;font-variant-numeric:normal"/>
   <path d="m335.31659-449.1535-1.70574-7.49493h-0.62027q-2.53277 3.98006-7.23648 6.25439-4.65203 2.27432-10.64797 2.27432-10.38952 0-15.50674-5.16892-5.11723-5.16891-5.11723-15.66181v-37.37125h12.25033v35.252q0 6.56452 2.68784 9.87263 2.68783 3.25641 8.42533 3.25641 7.64999 0 11.21654-4.54864 3.61824-4.60034 3.61824-15.35168v-28.48072h12.19864v57.1682z" style="font-feature-settings:normal;font-variant-caps:normal;font-variant-ligatures:normal;font-variant-numeric:normal"/>
   <path d="m391.19256-507.35548q3.66993 0 6.04763 0.51689l-1.18885 11.31992q-2.58446-0.62027-5.37567-0.62027-7.28817 0-11.83682 4.7554-4.49695 4.7554-4.49695 12.35371v29.87633h-12.14695v-57.1682h9.5108l1.60236 10.07938h0.62027q2.84291-5.11722 7.39155-8.11519 4.60034-2.99797 9.87263-2.99797z" style="font-feature-settings:normal;font-variant-caps:normal;font-variant-ligatures:normal;font-variant-numeric:normal"/>
   <path d="m420.0351-449.1535h-12.14695v-57.1682h12.14695zm-12.87059-72.31312q0-3.25642 1.75743-5.01385 1.80912-1.75743 5.11722-1.75743 3.20473 0 4.96216 1.75743 1.80912 1.75743 1.80912 5.01385 0 3.10135-1.80912 4.91047-1.75743 1.75743-4.96216 1.75743-3.3081 0-5.11722-1.75743-1.75743-1.80912-1.75743-4.91047z" style="font-feature-settings:normal;font-variant-caps:normal;font-variant-ligatures:normal;font-variant-numeric:normal"/>
   <path d="m458.75027-457.94066q4.44527 0 8.89054-1.39561v9.14898q-2.01588 0.87872-5.22061 1.4473-3.15303 0.62027-6.56452 0.62027-17.26417 0-17.26417-18.19458v-30.80673h-7.80506v-5.37567l8.37364-4.44527 4.13513-12.09526h7.49493v12.71553h16.28208v9.20067h-16.28208v30.59997q0 4.39358 2.17094 6.51284 2.22263 2.06756 5.78918 2.06756z" style="font-feature-settings:normal;font-variant-caps:normal;font-variant-ligatures:normal;font-variant-numeric:normal"/>
   <path d="m470.32864-506.3217h13.23243l11.63005 32.40909q2.63615 6.92635 3.51487 13.02567h0.41351q0.4652-2.8429 1.70574-6.87466 1.24054-4.08344 13.12904-38.5601h13.12905l-24.44897 64.7665q-6.6679 17.83276-22.22633 17.83276-4.03176 0-7.85675-0.87872v-9.61418q2.73952 0.62027 6.25438 0.62027 8.78716 0 12.35371-10.18276l2.11926-5.37567z" style="font-feature-settings:normal;font-variant-caps:normal;font-variant-ligatures:normal;font-variant-numeric:normal"/>
  </g>
  <g style="font-feature-settings:normal;font-variant-caps:normal;font-variant-ligatures:normal;font-variant-numeric:normal" aria-label="sysctl">
   <path d="m137.67686 391.76703q0 4.01935-2.92768 6.17789-2.92767 2.13372-8.38604 2.13372-5.48319 0-8.80783-1.66232v-5.03659q4.8381 2.23297 9.00631 2.23297 5.38394 0 5.38394-3.25021 0-1.04206-0.59545-1.73676-0.59546-0.6947-1.96006-1.43902-1.36459-0.74433-3.79605-1.68714-4.73886-1.836-6.42599-3.67199-1.66233-1.836-1.66233-4.76368 0-3.52313 2.82843-5.45837 2.85325-1.96005 7.74097-1.96005 4.83811 0 9.15518 1.96005l-1.88562 4.39151q-4.44113-1.836-7.46805-1.836-4.6148 0-4.6148 2.62995 0 1.29016 1.19092 2.18334 1.21572 0.89319 5.25988 2.45627 3.39908 1.31497 4.93735 2.40665 1.53827 1.09167 2.28259 2.5307 0.74433 1.41422 0.74433 3.39908z" style="font-feature-settings:normal;font-variant-caps:normal;font-variant-ligatures:normal;font-variant-numeric:normal"/>
   <path d="m139.78577 372.14169h6.35157l5.58242 15.55637q1.26536 3.32465 1.68714 6.25232h0.19848q0.2233-1.3646 0.81876-3.29984 0.59546-1.96005 6.30194-18.50885h6.30194l-11.7355 31.08792q-3.20059 8.55973-10.66864 8.55973-1.93524 0-3.77124-0.42179v-4.6148q1.31497 0.29773 3.0021 0.29773 4.21784 0 5.92978-4.88773l1.01725-2.58032z" style="font-feature-settings:normal;font-variant-caps:normal;font-variant-ligatures:normal;font-variant-numeric:normal"/>
   <path d="m189.68027 391.76703q0 4.01935-2.92767 6.17789-2.92767 2.13372-8.38605 2.13372-5.48318 0-8.80783-1.66232v-5.03659q4.83811 2.23297 9.00632 2.23297 5.38394 0 5.38394-3.25021 0-1.04206-0.59546-1.73676t-1.96005-1.43902q-1.36459-0.74433-3.79605-1.68714-4.73886-1.836-6.426-3.67199-1.66232-1.836-1.66232-4.76368 0-3.52313 2.82843-5.45837 2.85324-1.96005 7.74097-1.96005 4.8381 0 9.15518 1.96005l-1.88562 4.39151q-4.44113-1.836-7.46805-1.836-4.6148 0-4.6148 2.62995 0 1.29016 1.19091 2.18334 1.21573 0.89319 5.25989 2.45627 3.39908 1.31497 4.93735 2.40665 1.53827 1.09167 2.28259 2.5307 0.74432 1.41422 0.74432 3.39908z" style="font-feature-settings:normal;font-variant-caps:normal;font-variant-ligatures:normal;font-variant-numeric:normal"/>
   <path d="m207.02302 400.07864q-6.22751 0-9.47772-3.62237-3.22541-3.64719-3.22541-10.44534 0-6.92222 3.37427-10.64383 3.39908-3.72162 9.80026-3.72162 4.34189 0 7.8154 1.6127l-1.76156 4.68924q-3.69681-1.43903-6.10346-1.43903-7.1207 0-7.1207 9.45291 0 4.61481 1.76157 6.94703 1.78638 2.3074 5.21027 2.3074 3.89529 0 7.3688-1.93524v5.08621q-1.56308 0.918-3.34946 1.31497-1.76156 0.39697-4.29226 0.39697z" style="font-feature-settings:normal;font-variant-caps:normal;font-variant-ligatures:normal;font-variant-numeric:normal"/>
   <path d="m231.38721 395.36459q2.13373 0 4.26746-0.66989v4.39151q-0.96762 0.42179-2.50589 0.6947-1.51346 0.29773-3.15097 0.29773-8.2868 0-8.2868-8.73339v-14.78724h-3.74643v-2.58032l4.01934-2.13373 1.98487-5.80572h3.59756v6.10345h7.8154v4.41632h-7.8154v14.68799q0 2.10892 1.04206 3.12616 1.06686 0.99243 2.7788 0.99243z" style="font-feature-settings:normal;font-variant-caps:normal;font-variant-ligatures:normal;font-variant-numeric:normal"/>
   <path d="m246.94358 399.58243h-5.83054v-38.60559h5.83054z" style="font-feature-settings:normal;font-variant-caps:normal;font-variant-ligatures:normal;font-variant-numeric:normal"/>
  </g>
  <g style="font-feature-settings:normal;font-variant-caps:normal;font-variant-ligatures:normal;font-variant-numeric:normal" aria-label="hardening">
   <path d="m184.70138 165.52658h-6.50594v-18.74593q0-3.52865-1.43351-5.2654-1.40595-1.73676-4.49351-1.73676-4.08 0-6.00973 2.45352-1.90216 2.42594-1.90216 8.15999v15.13458h-6.47837v-42.8951h6.47837v10.88918q0 2.61892-0.33081 5.59621h0.41351q1.32325-2.2054 3.66649-3.41837 2.37081-1.21297 5.51351-1.21297 11.08215 0 11.08215 11.16485z" style="font-feature-settings:normal;font-variant-caps:normal;font-variant-ligatures:normal;font-variant-numeric:normal"/>
   <path d="m212.79271 165.52658-1.29568-4.2454h-0.22054q-2.2054 2.78432-4.43837 3.80432-2.23297 0.99243-5.73405 0.99243-4.49351 0-7.02973-2.42594-2.50864-2.42595-2.50864-6.86432 0-4.71405 3.50107-7.11243 3.50108-2.39837 10.66864-2.61891l5.26541-0.16541v-1.62648q0-2.92216-1.37838-4.35568-1.35081-1.46108-4.21784-1.46108-2.34324 0-4.49351 0.68919-2.15026 0.68919-4.13513 1.62649l-2.09513-4.63135q2.48108-1.29568 5.43081-1.9573 2.94972-0.68918 5.56864-0.68918 5.81675 0 8.76648 2.53621 2.97729 2.53621 2.97729 7.96702v20.53782zm-9.64864-4.41081q3.52864 0 5.65134-1.95729 2.15027-1.98487 2.15027-5.54108v-2.64648l-3.91459 0.1654q-4.57621 0.16541-6.67135 1.54378-2.06756 1.35081-2.06756 4.1627 0 2.04 1.21297 3.17027 1.21297 1.1027 3.63892 1.1027z" style="font-feature-settings:normal;font-variant-caps:normal;font-variant-ligatures:normal;font-variant-numeric:normal"/>
   <path d="m241.9316 134.48553q1.9573 0 3.2254 0.27567l-0.63405 6.03729q-1.37838-0.33081-2.86702-0.33081-3.88703 0-6.31297 2.53622-2.39838 2.53621-2.39838 6.58864v15.93404h-6.47837v-30.4897h5.07243l0.85459 5.37567h0.33081q1.51622-2.72919 3.94216-4.32811 2.45351-1.59891 5.2654-1.59891z" style="font-feature-settings:normal;font-variant-caps:normal;font-variant-ligatures:normal;font-variant-numeric:normal"/>
   <path d="m261.11862 166.07793q-5.70649 0-8.90432-4.13513-3.19784-4.13513-3.19784-11.60594 0-7.49837 3.22541-11.66107 3.25297-4.19026 8.98702-4.19026 6.00972 0 9.15242 4.43837h0.33081q-0.46865-3.28054-0.46865-5.1827v-11.10972h6.50594v42.8951h-5.07242l-1.13027-3.99729h-0.30325q-3.11513 4.54864-9.12485 4.54864zm1.73675-5.23783q3.9973 0 5.81675-2.23297 1.81946-2.26054 1.8746-7.3054v-0.90973q0-5.76162-1.8746-8.18756-1.87459-2.42595-5.87188-2.42595-3.41838 0-5.2654 2.78433-1.84703 2.75675-1.84703 7.88431 0 5.07243 1.79189 7.74648 1.79189 2.64649 5.37567 2.64649z" style="font-feature-settings:normal;font-variant-caps:normal;font-variant-ligatures:normal;font-variant-numeric:normal"/>
   <path d="m299.32722 166.07793q-7.11242 0-11.13728-4.13513-3.9973-4.1627-3.9973-11.44053 0-7.47081 3.72162-11.74378 3.72162-4.27296 10.22756-4.27296 6.03729 0 9.53837 3.66648t3.50108 10.08972v3.50108h-20.31728q0.13784 4.43837 2.39837 6.83675 2.26054 2.37081 6.36811 2.37081 2.70162 0 5.01729-0.49622 2.34324-0.52378 5.01729-1.70919v5.26541q-2.37081 1.13027-4.79675 1.59891-2.42594 0.46865-5.54108 0.46865zm-1.1854-26.68538q-3.08757 0-4.96216 1.95729-1.84702 1.9573-2.2054 5.70649h13.83891q-0.0551-3.77676-1.81946-5.70649-1.76433-1.95729-4.85189-1.95729z" style="font-feature-settings:normal;font-variant-caps:normal;font-variant-ligatures:normal;font-variant-numeric:normal"/>
   <path d="m345.36503 165.52658h-6.50594v-18.74593q0-3.52865-1.43351-5.2654-1.40595-1.73676-4.49351-1.73676-4.10757 0-6.00973 2.42595-1.90216 2.42594-1.90216 8.13242v15.18972h-6.47837v-30.4897h5.07243l0.90973 3.99729h0.33081q1.37837-2.17784 3.91459-3.36324 2.53621-1.1854 5.62378-1.1854 10.97188 0 10.97188 11.16485z" style="font-feature-settings:normal;font-variant-caps:normal;font-variant-ligatures:normal;font-variant-numeric:normal"/>
   <path d="m360.85798 165.52658h-6.47837v-30.4897h6.47837zm-6.86432-38.56699q0-1.73676 0.9373-2.67406 0.96486-0.93729 2.72919-0.93729 1.70918 0 2.64648 0.93729 0.96486 0.9373 0.96486 2.67406 0 1.65405-0.96486 2.61891-0.9373 0.9373-2.64648 0.9373-1.76433 0-2.72919-0.9373-0.9373-0.96486-0.9373-2.61891z" style="font-feature-settings:normal;font-variant-caps:normal;font-variant-ligatures:normal;font-variant-numeric:normal"/>
   <path d="m396.97148 165.52658h-6.50595v-18.74593q0-3.52865-1.43351-5.2654-1.40594-1.73676-4.49351-1.73676-4.10756 0-6.00972 2.42595-1.90216 2.42594-1.90216 8.13242v15.18972h-6.47838v-30.4897h5.07243l0.90973 3.99729h0.33081q1.37838-2.17784 3.91459-3.36324 2.53622-1.1854 5.62378-1.1854 10.97189 0 10.97189 11.16485z" style="font-feature-settings:normal;font-variant-caps:normal;font-variant-ligatures:normal;font-variant-numeric:normal"/>
   <path d="m431.73414 135.03688v3.55621l-5.21027 0.96486q0.71676 0.96487 1.18541 2.37081 0.46865 1.40595 0.46865 2.9773 0 4.71405-3.25297 7.41567t-8.95946 2.70162q-1.46108 0-2.64648-0.22054-2.09513 1.29567-2.09513 3.03243 0 1.04756 0.96486 1.57135 0.99243 0.52378 3.61135 0.52378h5.32054q5.04486 0 7.66377 2.15027 2.61892 2.15027 2.61892 6.2027 0 5.18269-4.27297 7.99458t-12.35026 2.81189q-6.23026 0-9.5108-2.2054t-3.28054-6.2854q0-2.81189 1.76432-4.74162 1.79189-1.90216 4.98973-2.64648-1.29568-0.55135-2.15027-1.76433-0.82703-1.24054-0.82703-2.59135 0-1.70918 0.96487-2.89459 0.96486-1.1854 2.86702-2.34324-2.37081-1.02-3.85945-3.3081-1.46108-2.31568-1.46108-5.40324 0-4.96216 3.11513-7.69135 3.1427-2.72918 8.93188-2.72918 1.29568 0 2.70162 0.19297 1.43351 0.1654 2.15027 0.35838zm-23.9562 35.23132q0 2.09513 1.8746 3.2254 1.90216 1.13027 5.32053 1.13027 5.29297 0 7.88432-1.51621 2.59135-1.51622 2.59135-4.02487 0-1.98486-1.43351-2.83945-1.40595-0.82703-5.2654-0.82703h-4.90703q-2.78432 0-4.43837 1.29568-1.62649 1.32324-1.62649 3.55621zm2.78433-25.36214q0 2.86702 1.46108 4.4108 1.48864 1.54379 4.2454 1.54379 5.62378 0 5.62378-6.00973 0-2.97729-1.40595-4.57621-1.37838-1.62649-4.21783-1.62649-2.81189 0-4.27297 1.59892-1.43351 1.59892-1.43351 4.65892z" style="font-feature-settings:normal;font-variant-caps:normal;font-variant-ligatures:normal;font-variant-numeric:normal"/>
  </g>
 </g>
</svg>
