<?xml version="1.0" encoding="UTF-8"?>
<svg width="2048" height="1152" version="1.1" viewBox="0 0 542 305" xmlns="http://www.w3.org/2000/svg" xmlns:cc="http://creativecommons.org/ns#" xmlns:dc="http://purl.org/dc/elements/1.1/" xmlns:rdf="http://www.w3.org/1999/02/22-rdf-syntax-ns#">
 <metadata>
  <rdf:RDF>
   <cc:Work rdf:about="">
    <dc:format>image/svg+xml</dc:format>
    <dc:type rdf:resource="http://purl.org/dc/dcmitype/StillImage"/>
    <dc:title/>
    <dc:creator>
     <cc:Agent>
      <dc:title>Cagatay Aydin</dc:title>
     </cc:Agent>
    </dc:creator>
    <dc:publisher>
     <cc:Agent>
      <dc:title>https://www.kmotoko.com</dc:title>
     </cc:Agent>
    </dc:publisher>
    <cc:license rdf:resource="http://creativecommons.org/licenses/by/4.0/"/>
   </cc:Work>
   <cc:License rdf:about="http://creativecommons.org/licenses/by/4.0/">
    <cc:permits rdf:resource="http://creativecommons.org/ns#Reproduction"/>
    <cc:permits rdf:resource="http://creativecommons.org/ns#Distribution"/>
    <cc:requires rdf:resource="http://creativecommons.org/ns#Notice"/>
    <cc:requires rdf:resource="http://creativecommons.org/ns#Attribution"/>
    <cc:permits rdf:resource="http://creativecommons.org/ns#DerivativeWorks"/>
   </cc:License>
  </rdf:RDF>
 </metadata>
 <rect x="-.0727" y=".0384" width="542" height="305" fill="#fff" stroke="#fff" stroke-width=".0767"/>
 <g transform="translate(185.53917,-236.72239)">
  <g stroke-width=".20556022">
   <g style="font-feature-settings:normal;font-variant-caps:normal;font-variant-ligatures:normal;font-variant-numeric:normal" aria-label="Linux kernel">
    <g>
     <path d="m-64.017644 306.2178v-47.88032h7.827221v41.1666h20.272176v6.71372z" style="font-feature-settings:normal;font-variant-caps:normal;font-variant-ligatures:normal;font-variant-numeric:normal"/>
     <path d="m-20.722304 306.2178h-7.696222v-36.22136h7.696222zm-8.15472-45.81708q0-2.06324 1.113496-3.17674 1.146246-1.11349 3.242238-1.11349 2.030493 0 3.143989 1.11349 1.146245 1.1135 1.146245 3.17674 0 1.96499-1.146245 3.11124-1.113496 1.1135-3.143989 1.1135-2.095992 0-3.242238-1.1135-1.113496-1.14625-1.113496-3.11124z" style="font-feature-settings:normal;font-variant-caps:normal;font-variant-ligatures:normal;font-variant-numeric:normal"/>
     <path d="m22.180037 306.2178h-7.728972v-22.26991q0-4.19199-1.702994-6.25523-1.670243-2.06324-5.33823-2.06324-4.8797322 0-7.1394739 2.88199-2.2597417 2.88198-2.2597417 9.66121v18.04518h-7.6962218v-36.22136h6.0259779l1.080746 4.74873h0.3929986q1.637494-2.58724 4.650483-3.99549 3.012989-1.40824 6.6809755-1.40824 13.034452 0 13.034452 13.2637z" style="font-feature-settings:normal;font-variant-caps:normal;font-variant-ligatures:normal;font-variant-numeric:normal"/>
     <path d="m58.434154 306.2178-1.080746-4.74873h-0.392998q-1.604744 2.52174-4.584983 3.96274-2.94749 1.44099-6.746476 1.44099-6.582726 0-9.824964-3.27499-3.242238-3.27498-3.242238-9.92321v-23.67816h7.761722v22.33541q0 4.15924 1.702993 6.25523 1.702994 2.06324 5.338231 2.06324 4.846982 0 7.106724-2.88199 2.292492-2.91473 2.292492-9.72671v-18.04518h7.728971v36.22136z" style="font-feature-settings:normal;font-variant-caps:normal;font-variant-ligatures:normal;font-variant-numeric:normal"/>
     <path d="m83.52057 287.71412-12.150205-17.71768h8.776968l8.25297 12.6742 8.318469-12.6742h8.711468l-12.182955 17.71768 12.805205 18.50368h-8.71147l-8.940717-13.55845-8.907968 13.55845h-8.711468z" style="font-feature-settings:normal;font-variant-caps:normal;font-variant-ligatures:normal;font-variant-numeric:normal"/>
    </g>
    <g fill="#d33682">
     <path d="m137.26311 287.09187 4.35574-5.43648 10.93846-11.65895h8.87522l-14.5737 15.55619 15.49069 20.66517h-9.03896l-11.62621-15.88369-4.22474 3.47149v12.4122h-7.63072v-50.95881h7.63072v24.85716l-0.39299 6.97572z" style="font-feature-settings:normal;font-variant-caps:normal;font-variant-ligatures:normal;font-variant-numeric:normal"/>
     <path d="m184.02994 306.8728q-8.44947 0-13.23095-4.91248-4.74873-4.94523-4.74873-13.5912 0-8.87522 4.42123-13.95145 4.42124-5.07623 12.15021-5.07623 7.17222 0 11.33146 4.35573 4.15923 4.35574 4.15923 11.98646v4.15923h-24.13666q0.16375 5.27273 2.84924 8.12197 2.68549 2.81649 7.56522 2.81649 3.20949 0 5.96048-0.58949 2.78374-0.62225 5.96048-2.0305v6.25523q-2.81649 1.34275-5.69848 1.89949-2.88199 0.55675-6.58273 0.55675zm-1.40824-31.70188q-3.66799 0-5.89498 2.32524-2.19424 2.32524-2.61999 6.77922h16.44044q-0.0655-4.48673-2.16149-6.77922-2.096-2.32524-5.76398-2.32524z" style="font-feature-settings:normal;font-variant-caps:normal;font-variant-ligatures:normal;font-variant-numeric:normal"/>
     <path d="m225.22928 269.34144q2.32525 0 3.83174 0.3275l-0.75325 7.17222q-1.63749-0.393-3.40598-0.393-4.61774 0-7.49973 3.01299-2.84924 3.01299-2.84924 7.82722v18.92943h-7.69622v-36.22136h6.02598l1.01525 6.38622h0.39299q1.80125-3.24223 4.68324-5.14173 2.91474-1.89949 6.25522-1.89949z" style="font-feature-settings:normal;font-variant-caps:normal;font-variant-ligatures:normal;font-variant-numeric:normal"/>
     <path d="m267.67313 306.2178h-7.72897v-22.26991q0-4.19199-1.70299-6.25523-1.67025-2.06324-5.33823-2.06324-4.87974 0-7.13948 2.88199-2.25974 2.88198-2.25974 9.66121v18.04518h-7.69622v-36.22136h6.02598l1.08074 4.74873h0.393q1.6375-2.58724 4.65048-3.99549 3.01299-1.40824 6.68098-1.40824 13.03445 0 13.03445 13.2637z" style="font-feature-settings:normal;font-variant-caps:normal;font-variant-ligatures:normal;font-variant-numeric:normal"/>
     <path d="m294.20055 306.8728q-8.44947 0-13.23095-4.91248-4.74873-4.94523-4.74873-13.5912 0-8.87522 4.42123-13.95145t12.15021-5.07623q7.17222 0 11.33145 4.35573 4.15924 4.35574 4.15924 11.98646v4.15923h-24.13666q0.16375 5.27273 2.84924 8.12197 2.68549 2.81649 7.56522 2.81649 3.20949 0 5.96048-0.58949 2.78374-0.62225 5.96048-2.0305v6.25523q-2.81649 1.34275-5.69848 1.89949-2.88199 0.55675-6.58273 0.55675zm-1.40824-31.70188q-3.66799 0-5.89498 2.32524-2.19424 2.32524-2.61999 6.77922h16.44044q-0.0655-4.48673-2.1615-6.77922-2.09599-2.32524-5.76397-2.32524z" style="font-feature-settings:normal;font-variant-caps:normal;font-variant-ligatures:normal;font-variant-numeric:normal"/>
     <path d="m324.72342 306.2178h-7.69622v-50.95881h7.69622z" style="font-feature-settings:normal;font-variant-caps:normal;font-variant-ligatures:normal;font-variant-numeric:normal"/>
    </g>
   </g>
   <g style="font-feature-settings:normal;font-variant-caps:normal;font-variant-ligatures:normal;font-variant-numeric:normal" aria-label="BPF-JIT">
    <g fill="#d33682">
     <path d="m-24.60218 392.91835h14.961526q10.411015 0 15.030472 3.03367 4.653931 3.03368 4.653931 9.58365 0 4.41262-2.2752553 7.34287-2.275255 2.93025-6.5499766 3.68867v0.34474q5.3089284 0.99973 7.7910248 3.96446 2.5165701 2.93025 2.5165701 7.96339 0 6.79129-4.7573516 10.65233-4.7228778 3.82657-13.1689 3.82657h-18.20204zm8.239181 20.82203h7.9289191q5.1710341 0 7.5497098-1.62026 2.3786757-1.65473 2.3786757-5.58471 0-3.55078-2.585517-5.13656-2.5510435-1.58579-8.1357604-1.58579h-7.1360272zm0 6.68787v15.96126h8.7562846q5.1710341 0 7.7910247-1.96499 2.6544642-1.99947 2.6544642-6.27419 0-3.92999-2.6889377-5.82603-2.6889378-1.89605-8.1702339-1.89605z" style="font-feature-settings:normal;font-variant-caps:normal;font-variant-ligatures:normal;font-variant-numeric:normal"/>
     <path d="m55.37648 408.15566q0 7.89445-5.171034 12.10022-5.171034 4.20578-14.72021 4.20578h-5.239981v18.85704h-8.239181v-50.40035h14.513369q9.445755 0 14.13416 3.86104 4.722877 3.86104 4.722877 11.37627zm-25.131225 9.37681h4.378142q6.343135 0 9.307861-2.20631 2.964726-2.2063 2.964726-6.89471 0-4.34367-2.654464-6.48103t-8.273654-2.13736h-5.722611z" style="font-feature-settings:normal;font-variant-caps:normal;font-variant-ligatures:normal;font-variant-numeric:normal"/>
     <path d="m73.612991 443.3187h-8.170234v-50.40035h28.440688v6.96366h-20.270454v15.75442h18.994932v6.99813h-18.994932z" style="font-feature-settings:normal;font-variant-caps:normal;font-variant-ligatures:normal;font-variant-numeric:normal"/>
    </g>
    <path d="m98.91659 427.84007v-6.89472h17.71941v6.89472z" style="font-feature-settings:normal;font-variant-caps:normal;font-variant-ligatures:normal;font-variant-numeric:normal"/>
    <path d="m119.46284 457.38391q-3.37841 0-5.65367-0.86184v-6.92919q2.89578 0.72395 5.03314 0.72395 6.75682 0 6.75682-8.54945v-48.84903h8.27366v48.57325q0 7.72207-3.68867 11.78995-3.6542 4.10236-10.72128 4.10236z" style="font-feature-settings:normal;font-variant-caps:normal;font-variant-ligatures:normal;font-variant-numeric:normal"/>
    <path d="m146.93826 443.3187v-50.40035h8.23918v50.40035z" style="font-feature-settings:normal;font-variant-caps:normal;font-variant-ligatures:normal;font-variant-numeric:normal"/>
    <path d="m185.85891 443.3187h-8.23918v-43.33327h-14.82363v-7.06708h37.88644v7.06708h-14.82363z" style="font-feature-settings:normal;font-variant-caps:normal;font-variant-ligatures:normal;font-variant-numeric:normal"/>
   </g>
   <g transform="rotate(-90)" fill="#d33682" style="font-feature-settings:normal;font-variant-caps:normal;font-variant-ligatures:normal;font-variant-numeric:normal" aria-label="YAMA">
    <path d="m-490.13104-121.91071 15.50621-29.89202h11.65207l-21.82522 40.10999v25.41046h-10.75575v-25.05194l-21.73558-40.46851h11.65207z" style="font-feature-settings:normal;font-variant-caps:normal;font-variant-ligatures:normal;font-variant-numeric:normal"/>
    <path d="m-413.67557-86.28228-6.54308-18.19515h-25.05194l-6.40863 18.19515h-11.29354l24.51415-65.78934h11.65206l24.51415 65.78934zm-9.36647-27.42717-6.13974-17.83662q-0.67223-1.79262-1.88225-5.64677-1.16521-3.85414-1.61337-5.64676-1.21002 5.51232-3.54043 12.0554l-5.91567 17.07475z" style="font-feature-settings:normal;font-variant-caps:normal;font-variant-ligatures:normal;font-variant-numeric:normal"/>
    <path d="m-365.22988-86.28228-19.00183-54.71988h-0.35852q0.76186 12.18985 0.76186 22.85597v31.86391h-9.72499v-65.52045h15.10287l18.19515 52.120577h0.26889l18.73293-52.120577h15.14769v65.52045h-10.3076v-32.4017q0-4.8849 0.22408-12.72764 0.26889-7.84273 0.44815-9.50091h-0.35852l-19.67406 54.63025z" style="font-feature-settings:normal;font-variant-caps:normal;font-variant-ligatures:normal;font-variant-numeric:normal"/>
    <path d="m-268.11441-86.28228-6.54309-18.19515h-25.05193l-6.40864 18.19515h-11.29354l24.51415-65.78934h11.65207l24.51415 65.78934zm-9.36647-27.42717-6.13974-17.83662q-0.67224-1.79262-1.88226-5.64677-1.1652-3.85414-1.61336-5.64676-1.21002 5.51232-3.54043 12.0554l-5.91567 17.07475z" style="font-feature-settings:normal;font-variant-caps:normal;font-variant-ligatures:normal;font-variant-numeric:normal"/>
   </g>
   <g>
    <g style="font-feature-settings:normal;font-variant-caps:normal;font-variant-ligatures:normal;font-variant-numeric:normal" aria-label="ExecShield">
     <path d="m-37.496399 518.13837h-28.509635v-50.40035h28.509635v6.96366h-20.270454v13.72048h18.994932v6.89471h-18.994932v15.82336h20.270454z" style="font-feature-settings:normal;font-variant-caps:normal;font-variant-ligatures:normal;font-variant-numeric:normal"/>
     <path d="m-18.949626 498.6608-12.789691-18.65019h9.238915l8.687337 13.34127 8.7562844-13.34127h9.1699672l-12.824165 18.65019 13.479162 19.47757h-9.1699672l-9.4112821-14.27206-9.376809 14.27206h-9.169967z" style="font-feature-settings:normal;font-variant-caps:normal;font-variant-ligatures:normal;font-variant-numeric:normal"/>
     <path d="m28.106785 518.82784q-8.894178 0-13.927318-5.17104-4.9986664-5.2055-4.9986664-14.30652 0-9.34234 4.6539304-14.68574 4.653931-5.3434 12.789691-5.3434 7.54971 0 11.927852 4.58498 4.378143 4.58498 4.378143 12.61732v4.37815h-25.407015q0.172368 5.55024 2.9992 8.54944 2.826832 2.96473 7.963393 2.96473 3.378409 0 6.274188-0.62053 2.930252-0.655 6.274188-2.13736v6.58445q-2.964727 1.41342-5.9984 1.99947t-6.929186 0.58605zm-1.482363-33.37041q-3.861038 0-6.205241 2.44762-2.309728 2.44763-2.757884 7.13603h17.305727q-0.06895-4.72288-2.275255-7.13603-2.206308-2.44762-6.067347-2.44762z" style="font-feature-settings:normal;font-variant-caps:normal;font-variant-ligatures:normal;font-variant-numeric:normal"/>
     <path d="m67.510066 518.82784q-8.652864 0-13.1689-5.03314-4.481563-5.06762-4.481563-14.51337 0-9.61812 4.688404-14.78916 4.722878-5.17103 13.617057-5.17103 6.032873 0 10.859171 2.24078l-2.447622 6.5155q-5.136561-1.99946-8.480496-1.99946-9.893912 0-9.893912 13.13442 0 6.41208 2.447623 9.6526 2.482096 3.20604 7.239447 3.20604 5.412349 0 10.238648-2.68894v7.06708q-2.171834 1.27552-4.653931 1.8271-2.447623 0.55158-5.963926 0.55158z" style="font-feature-settings:normal;font-variant-caps:normal;font-variant-ligatures:normal;font-variant-numeric:normal"/>
     <g fill="#d33682">
      <path d="m117.08304 504.45236q0 6.72235-4.86077 10.54891-4.86077 3.82657-13.410217 3.82657-8.549443 0-13.996266-2.65447v-7.79102q3.447356 1.62026 7.308395 2.55104 3.895512 0.93079 7.239448 0.93079 4.89525 0 7.20497-1.86157 2.34421-1.86158 2.34421-4.99867 0-2.82683-2.13736-4.79182-2.13737-1.965-8.825236-4.65394-6.894712-2.79235-9.721544-6.3776t-2.826832-8.61839q0-6.30867 4.481563-9.92839 4.481562-3.61972 12.031269-3.61972 7.23945 0 14.40995 3.17156l-2.61999 6.72235q-6.72234-2.82683-11.9968-2.82683-3.998931 0-6.067345 1.75815-2.068413 1.72368-2.068413 4.58498 0 1.96499 0.827365 3.37841 0.827366 1.37894 2.723411 2.61999 1.896046 1.24105 6.825762 3.27499 5.55025 2.30973 8.13576 4.30919 2.58552 1.99947 3.7921 4.51604 1.20657 2.51657 1.20657 5.92945z" style="font-feature-settings:normal;font-variant-caps:normal;font-variant-ligatures:normal;font-variant-numeric:normal"/>
      <path d="m159.58895 518.13837h-8.13576v-23.44202q0-4.41262-1.79263-6.58445-1.75815-2.17184-5.61919-2.17184-5.10208 0-7.51523 3.06815-2.37868 3.03367-2.37868 10.20417v18.92599h-8.10129v-53.64086h8.10129v13.61705q0 3.27499-0.41368 6.99814h0.5171q1.65473-2.75789 4.58499-4.27473 2.96472-1.51683 6.89471-1.51683 13.85837 0 13.85837 13.96179z" style="font-feature-settings:normal;font-variant-caps:normal;font-variant-ligatures:normal;font-variant-numeric:normal"/>
      <path d="m178.96309 518.13837h-8.10129v-38.12776h8.10129zm-8.58392-48.22851q0-2.17184 1.1721-3.34394 1.20658-1.1721 3.41289-1.1721 2.13736 0 3.30946 1.1721 1.20657 1.1721 1.20657 3.34394 0 2.06841-1.20657 3.27498-1.1721 1.1721-3.30946 1.1721-2.20631 0-3.41289-1.1721-1.1721-1.20657-1.1721-3.27498z" style="font-feature-settings:normal;font-variant-caps:normal;font-variant-ligatures:normal;font-variant-numeric:normal"/>
      <path d="m207.2314 518.82784q-8.89417 0-13.92731-5.17104-4.99867-5.2055-4.99867-14.30652 0-9.34234 4.65393-14.68574t12.78969-5.3434q7.54971 0 11.92785 4.58498 4.37815 4.58498 4.37815 12.61732v4.37815h-25.40702q0.17237 5.55024 2.9992 8.54944 2.82683 2.96473 7.96339 2.96473 3.37841 0 6.27419-0.62053 2.93025-0.655 6.27419-2.13736v6.58445q-2.96473 1.41342-5.9984 1.99947t-6.92919 0.58605zm-1.48236-33.37041q-3.86104 0-6.20524 2.44762-2.30973 2.44763-2.75788 7.13603h17.30572q-0.0689-4.72288-2.27525-7.13603-2.20631-2.44762-6.06735-2.44762z" style="font-feature-settings:normal;font-variant-caps:normal;font-variant-ligatures:normal;font-variant-numeric:normal"/>
      <path d="m239.36076 518.13837h-8.10128v-53.64086h8.10128z" style="font-feature-settings:normal;font-variant-caps:normal;font-variant-ligatures:normal;font-variant-numeric:normal"/>
      <path d="m263.83699 518.82784q-7.13603 0-11.13496-5.17104-3.99894-5.17103-3.99894-14.51337 0-9.3768 4.03341-14.58231 4.06788-5.23998 11.23838-5.23998 7.51524 0 11.44522 5.55024h0.41369q-0.58605-4.10235-0.58605-6.48103v-13.89284h8.13576v53.64086h-6.34314l-1.41342-4.99867h-0.3792q-3.89552 5.68814-11.41075 5.68814zm2.17183-6.54998q4.99867 0 7.27392-2.79236 2.27526-2.82683 2.3442-9.13549v-1.13763q0-7.20497-2.3442-10.23865-2.3442-3.03367-7.34287-3.03367-4.27472 0-6.58445 3.48183-2.30972 3.44736-2.30972 9.85944 0 6.34313 2.24078 9.68707 2.24078 3.30946 6.72234 3.30946z" style="font-feature-settings:normal;font-variant-caps:normal;font-variant-ligatures:normal;font-variant-numeric:normal"/>
     </g>
    </g>
    <g transform="rotate(90)" style="font-feature-settings:normal;font-variant-caps:normal;font-variant-ligatures:normal;font-variant-numeric:normal" aria-label="security">
     <path d="m351.07502-311.01461q0 3.63007-2.64412 5.57955-2.64413 1.92707-7.57385 1.92707-4.95212 0-7.95477-1.50132v-4.54879q4.36952 2.0167 8.13404 2.0167 4.86249 0 4.86249-2.93542 0-0.94113-0.53778-1.56855-0.53779-0.62742-1.77022-1.29965-1.23243-0.67224-3.4284-1.52373-4.27989-1.65818-5.80362-3.31636-1.50133-1.65818-1.50133-4.3023 0-3.18191 2.5545-4.92972 2.57689-1.77022 6.99123-1.77022 4.36953 0 8.26849 1.77022l-1.703 3.96618q-4.011-1.65817-6.74475-1.65817-4.16785 0-4.16785 2.37522 0 1.16521 1.07557 1.97189 1.09799 0.80668 4.75046 2.21838 3.06987 1.18761 4.45915 2.17355 1.38929 0.98595 2.06152 2.2856 0.67224 1.27725 0.67224 3.06987z" style="font-feature-settings:normal;font-variant-caps:normal;font-variant-ligatures:normal;font-variant-numeric:normal"/>
     <path d="m367.56717-303.50799q-5.78122 0-9.05276-3.36117-3.24913-3.38358-3.24913-9.29925 0-6.07251 3.02506-9.54572 3.02505-3.47322 8.31329-3.47322 4.90732 0 7.75311 2.98024t2.84579 8.20126v2.8458h-16.51456q0.11204 3.60765 1.94948 5.55713 1.83744 1.92708 5.17621 1.92708 2.19596 0 4.07822-0.40334 1.90466-0.42575 4.07822-1.38929v4.27989q-1.92707 0.91872-3.89896 1.29966-1.97189 0.38093-4.50397 0.38093zm-0.96354-21.69076q-2.50967 0-4.0334 1.59095-1.50133 1.59095-1.79263 4.63842h11.24873q-0.0448-3.06987-1.47892-4.63842-1.4341-1.59095-3.94378-1.59095z" style="font-feature-settings:normal;font-variant-caps:normal;font-variant-ligatures:normal;font-variant-numeric:normal"/>
     <path d="m393.1793-303.50799q-5.62436 0-8.55978-3.27154-2.91302-3.29395-2.91302-9.43369 0-6.25178 3.04747-9.61295 3.06987-3.36118 8.85108-3.36118 3.92137 0 7.05846 1.45651l-1.59095 4.23508q-3.33876-1.29965-5.51232-1.29965-6.43105 0-6.43105 8.53737 0 4.16786 1.59096 6.27419 1.61336 2.08393 4.70564 2.08393 3.51803 0 6.65512-1.74781v4.5936q-1.41169 0.82909-3.02505 1.18762-1.59096 0.35852-3.87656 0.35852z" style="font-feature-settings:normal;font-variant-caps:normal;font-variant-ligatures:normal;font-variant-numeric:normal"/>
     <path d="m423.42985-303.95615-0.73946-3.24913h-0.26889q-1.09799 1.7254-3.1371 2.71135-2.0167 0.98594-4.61601 0.98594-4.50397 0-6.72234-2.24078t-2.21837-6.78957v-16.20085h5.31065v15.28213q0 2.84579 1.1652 4.27989 1.16521 1.4117 3.65248 1.4117 3.31635 0 4.86249-1.97189 1.56855-1.9943 1.56855-6.65512v-12.34671h5.28824v24.78304z" style="font-feature-settings:normal;font-variant-caps:normal;font-variant-ligatures:normal;font-variant-numeric:normal"/>
     <path d="m447.6527-329.18735q1.59096 0 2.62172 0.22408l-0.51538 4.90731q-1.12039-0.26889-2.33042-0.26889-3.1595 0-5.13139 2.06152-1.94947 2.06152-1.94947 5.35547v12.95171h-5.26584v-24.78304h4.12304l0.69464 4.36952h0.26889q1.23243-2.21837 3.20432-3.51802 1.9943-1.29966 4.27989-1.29966z" style="font-feature-settings:normal;font-variant-caps:normal;font-variant-ligatures:normal;font-variant-numeric:normal"/>
     <path d="m460.15626-303.95615h-5.26583v-24.78304h5.26583zm-5.57954-31.34853q0-1.41169 0.76186-2.17356 0.78428-0.76186 2.21838-0.76186 1.38928 0 2.15115 0.76186 0.78427 0.76187 0.78427 2.17356 0 1.34447-0.78427 2.12874-0.76187 0.76187-2.15115 0.76187-1.4341 0-2.21838-0.76187-0.76186-0.78427-0.76186-2.12874z" style="font-feature-settings:normal;font-variant-caps:normal;font-variant-ligatures:normal;font-variant-numeric:normal"/>
     <path d="m476.93971-307.76547q1.92707 0 3.85414-0.60502v3.96619q-0.8739 0.38093-2.26319 0.62742-1.36687 0.26889-2.84579 0.26889-7.48421 0-7.48421-7.88755v-13.35506h-3.38358v-2.33041l3.63007-1.92707 1.79262-5.24343h3.24914v5.51232h7.05846v3.98859h-7.05846v13.26543q0 1.90466 0.94112 2.82338 0.96354 0.89632 2.50968 0.89632z" style="font-feature-settings:normal;font-variant-caps:normal;font-variant-ligatures:normal;font-variant-numeric:normal"/>
     <path d="m481.95906-328.73919h5.7364l5.04176 14.0497q1.1428 3.00265 1.52373 5.64677h0.17926q0.20167-1.23243 0.73946-2.98024 0.53779-1.77022 5.69159-16.71623h5.69158l-10.5989 28.07699q-2.8906 7.7307-9.63536 7.7307-1.7478 0-3.40598-0.38093v-4.16786q1.18761 0.2689 2.71134 0.2689 3.80933 0 5.35547-4.41434l0.91872-2.33042z" style="font-feature-settings:normal;font-variant-caps:normal;font-variant-ligatures:normal;font-variant-numeric:normal"/>
    </g>
    <g style="font-feature-settings:normal;font-variant-caps:normal;font-variant-ligatures:normal;font-variant-numeric:normal" aria-label="sysctl">
     <path d="m-46.92177 353.13206q0 3.63007-2.644122 5.57955-2.644122 1.92707-7.573841 1.92707-4.952127 0-7.954775-1.50133v-4.54878q4.369524 2.0167 8.134037 2.0167 4.862496 0 4.862496-2.93542 0-0.94113-0.537787-1.56855-0.537788-0.62742-1.770218-1.29965-1.23243-0.67224-3.428396-1.52373-4.279892-1.65818-5.803624-3.31636-1.501323-1.65818-1.501323-4.3023 0-3.18191 2.554491-4.92972 2.576898-1.77022 6.991238-1.77022 4.369524 0 8.268484 1.77022l-1.702994 3.96618q-4.010999-1.65818-6.744753-1.65818-4.167853 0-4.167853 2.37523 0 1.16521 1.075575 1.97189 1.097983 0.80668 4.750457 2.21837 3.06987 1.18762 4.459155 2.17356 1.389284 0.98595 2.061519 2.2856 0.672234 1.27724 0.672234 3.06987z" style="font-feature-settings:normal;font-variant-caps:normal;font-variant-ligatures:normal;font-variant-numeric:normal"/>
     <path d="m-45.017105 335.40748h5.736401l5.041758 14.0497q1.142798 3.00265 1.523731 5.64677h0.179263q0.20167-1.23243 0.739458-2.98024 0.537787-1.77022 5.691585-16.71623h5.691585l-10.598897 28.07699q-2.890608 7.7307-9.63536 7.7307-1.74781 0-3.405988-0.38094v-4.16785q1.187614 0.26889 2.711346 0.26889 3.809328 0 5.355467-4.41434l0.918721-2.33041z" style="font-feature-settings:normal;font-variant-caps:normal;font-variant-ligatures:normal;font-variant-numeric:normal"/>
     <path d="m0.04501195 353.13206q0 3.63007-2.6441222 5.57955-2.6441222 1.92707-7.5738418 1.92707-4.952127 0-7.954774-1.50133v-4.54878q4.369524 2.0167 8.1340369 2.0167 4.8624958 0 4.8624958-2.93542 0-0.94113-0.5377875-1.56855-0.5377876-0.62742-1.7702174-1.29965-1.2324298-0.67224-3.4283958-1.52373-4.279893-1.65818-5.803624-3.31636-1.501324-1.65818-1.501324-4.3023 0-3.18191 2.554491-4.92972 2.576899-1.77022 6.9912386-1.77022 4.3695239 0 8.2684837 1.77022l-1.7029939 3.96618q-4.0109989-1.65818-6.7447523-1.65818-4.1678531 0-4.1678531 2.37523 0 1.16521 1.075575 1.97189 1.097983 0.80668 4.7504564 2.21837 3.0698706 1.18762 4.4591551 2.17356 1.3892846 0.98595 2.061519 2.2856 0.67223444 1.27724 0.67223444 3.06987z" style="font-feature-settings:normal;font-variant-caps:normal;font-variant-ligatures:normal;font-variant-numeric:normal"/>
     <path d="m15.708075 360.63868q-5.624362 0-8.5597854-3.27154-2.913016-3.29395-2.913016-9.43369 0-6.25178 3.0474629-9.61296 3.0698705-3.36117 8.8510865-3.36117 3.921368 0 7.058462 1.45651l-1.590955 4.23508q-3.338764-1.29966-5.512322-1.29966-6.4310432 0-6.4310432 8.53738 0 4.16785 1.5909552 6.27419 1.613362 2.08393 4.705641 2.08393 3.518027 0 6.655121-1.74781v4.5936q-1.411693 0.82909-3.025055 1.18761-1.590955 0.35853-3.876552 0.35853z" style="font-feature-settings:normal;font-variant-caps:normal;font-variant-ligatures:normal;font-variant-numeric:normal"/>
     <path d="m37.712544 356.38119q1.927072 0 3.854144-0.60501v3.96618q-0.873905 0.38094-2.263189 0.62742-1.366877 0.2689-2.845793 0.2689-7.48421 0-7.48421-7.88755v-13.35506h-3.38358v-2.33041l3.630066-1.92708 1.792625-5.24342h3.249133v5.51232h7.058462v3.98859h-7.058462v13.26543q0 1.90466 0.941128 2.82338 0.963536 0.89631 2.509676 0.89631z" style="font-feature-settings:normal;font-variant-caps:normal;font-variant-ligatures:normal;font-variant-numeric:normal"/>
     <path d="m51.762245 360.19052h-5.265837v-34.86656h5.265837z" style="font-feature-settings:normal;font-variant-caps:normal;font-variant-ligatures:normal;font-variant-numeric:normal"/>
    </g>
   </g>
   <g fill="#d33682" style="font-feature-settings:normal;font-variant-caps:normal;font-variant-ligatures:normal;font-variant-numeric:normal" aria-label="hardening">
    <path d="m104.10029 378.88226h-4.881452v-14.06521q0-2.64757-1.075575-3.95067-1.054891-1.3031-3.371514-1.3031-3.061252 0-4.509142 1.84089-1.427205 1.8202-1.427205 6.1225v11.35559h-4.860772v-32.18451h4.860772v8.17023q0 1.96499-0.24821 4.19888h0.310262q0.992839-1.65473 2.75099-2.56483 1.778836-0.9101 4.136827-0.9101 8.315019 0 8.315019 8.37707z" style="font-feature-settings:normal;font-variant-caps:normal;font-variant-ligatures:normal;font-variant-numeric:normal"/>
    <path d="m125.17743 378.88226-0.97215-3.18535h-0.16548q-1.65473 2.08909-3.33014 2.85441-1.67542 0.74463-4.3023 0.74463-3.37152 0-5.27446-1.82021-1.88226-1.8202-1.88226-5.15035 0-3.53699 2.62689-5.33651 2.62689-1.79951 8.00476-1.96499l3.95067-0.1241v-1.22037q0-2.19252-1.03421-3.26809-1.01352-1.09626-3.16467-1.09626-1.75815 0-3.37151 0.5171-1.61337 0.51711-3.10262 1.22037l-1.572-3.47494q1.86157-0.97215 4.07478-1.46857 2.2132-0.5171 4.17819-0.5171 4.36436 0 6.57756 1.90294 2.23388 1.90294 2.23388 5.97771v15.40968zm-7.23945-3.30946q2.64757 0 4.24025-1.46857 1.61336-1.48926 1.61336-4.15751v-1.98568l-2.93714 0.1241q-3.43357 0.12411-5.00557 1.15832-1.55131 1.01352-1.55131 3.1233 0 1.53063 0.91011 2.37868 0.9101 0.82736 2.7303 0.82736z" style="font-feature-settings:normal;font-variant-caps:normal;font-variant-ligatures:normal;font-variant-numeric:normal"/>
    <path d="m147.04056 355.59193q1.46858 0 2.42005 0.20684l-0.47574 4.52982q-1.03421-0.24821-2.15115-0.24821-2.91646 0-4.73667 1.90294-1.79952 1.90294-1.79952 4.94351v11.95543h-4.86077v-22.87665h3.80588l0.64121 4.03341h0.24821q1.13763-2.04773 2.95783-3.24741 1.84089-1.19968 3.95067-1.19968z" style="font-feature-settings:normal;font-variant-caps:normal;font-variant-ligatures:normal;font-variant-numeric:normal"/>
    <path d="m161.43672 379.29595q-4.28161 0-6.68097-3.10262t-2.39936-8.70803q0-5.62608 2.42004-8.74939 2.44073-3.14398 6.74303-3.14398 4.50914 0 6.86713 3.33014h0.24821q-0.35163-2.46141-0.35163-3.88862v-8.3357h4.88146v32.18451h-3.80588l-0.84805-2.9992h-0.22753q-2.33731 3.41289-6.84645 3.41289zm1.3031-3.92999q2.9992 0 4.36436-1.67541 1.36515-1.6961 1.40652-5.4813v-0.68258q0-4.32298-1.40652-6.14319-1.40653-1.8202-4.40573-1.8202-2.56483 0-3.95067 2.0891-1.38583 2.06841-1.38583 5.91566 0 3.80588 1.34447 5.81224 1.34447 1.98568 4.0334 1.98568z" style="font-feature-settings:normal;font-variant-caps:normal;font-variant-ligatures:normal;font-variant-numeric:normal"/>
    <path d="m190.10493 379.29595q-5.33651 0-8.35639-3.10262-2.9992-3.12331-2.9992-8.58392 0-5.6054 2.79236-8.81144t7.67381-3.20604q4.52983 0 7.15671 2.75099 2.62689 2.75099 2.62689 7.57039v2.62689h-15.24421q0.10342 3.33014 1.79952 5.12966 1.6961 1.77884 4.77803 1.77884 2.02705 0 3.76452-0.37232 1.75815-0.393 3.76451-1.28241v3.95067q-1.77884 0.84805-3.59904 1.19968t-4.15751 0.35163zm-0.88942-20.02225q-2.31662 0-3.72314 1.46858-1.38584 1.46857-1.65473 4.28161h10.38343q-0.0414-2.83372-1.36515-4.28161-1.32379-1.46858-3.64041-1.46858z" style="font-feature-settings:normal;font-variant-caps:normal;font-variant-ligatures:normal;font-variant-numeric:normal"/>
    <path d="m224.64744 378.88226h-4.88145v-14.06521q0-2.64757-1.07558-3.95067-1.05489-1.3031-3.37151-1.3031-3.08194 0-4.50914 1.8202-1.42721 1.82021-1.42721 6.10182v11.39696h-4.86077v-22.87665h3.80588l0.68258 2.9992h0.24821q1.0342-1.63405 2.93714-2.52347 1.90294-0.88941 4.21957-0.88941 8.23228 0 8.23228 8.37707z" style="font-feature-settings:normal;font-variant-caps:normal;font-variant-ligatures:normal;font-variant-numeric:normal"/>
    <path d="m236.27193 378.88226h-4.86078v-22.87665h4.86078zm-5.15035-28.9371q0-1.3031 0.70326-2.00636 0.72394-0.70327 2.04773-0.70327 1.28241 0 1.98567 0.70327 0.72395 0.70326 0.72395 2.00636 0 1.24104-0.72395 1.96499-0.70326 0.70326-1.98567 0.70326-1.32379 0-2.04773-0.70326-0.70326-0.72395-0.70326-1.96499z" style="font-feature-settings:normal;font-variant-caps:normal;font-variant-ligatures:normal;font-variant-numeric:normal"/>
    <path d="m263.36815 378.88226h-4.88146v-14.06521q0-2.64757-1.07557-3.95067-1.0549-1.3031-3.37152-1.3031-3.08193 0-4.50914 1.8202-1.42721 1.82021-1.42721 6.10182v11.39696h-4.86077v-22.87665h3.80588l0.68258 2.9992h0.24821q1.03421-1.63405 2.93715-2.52347 1.90294-0.88941 4.21956-0.88941 8.23229 0 8.23229 8.37707z" style="font-feature-settings:normal;font-variant-caps:normal;font-variant-ligatures:normal;font-variant-numeric:normal"/>
    <path d="m289.45084 356.00561v2.66825l-3.9093 0.72395q0.53779 0.72394 0.88942 1.77883t0.35163 2.23389q0 3.53699-2.44073 5.56403-2.44073 2.02705-6.72235 2.02705-1.09626 0-1.98567-0.16548-1.572 0.97216-1.572 2.27526 0 0.786 0.72395 1.17899 0.74463 0.393 2.70962 0.393h3.99204q3.78519 0 5.75019 1.61337 1.96499 1.61336 1.96499 4.65393 0 3.88861-3.20604 5.9984-3.20604 2.10978-9.26649 2.10978-4.67462 0-7.13603-1.65473t-2.46141-4.71599q0-2.10978 1.32378-3.55767 1.34447-1.4272 3.74383-1.98567-0.97215-0.41369-1.61336-1.32379-0.62053-0.93079-0.62053-1.94431 0-1.28241 0.72395-2.17183 0.72394-0.88942 2.15115-1.75815-1.77884-0.76532-2.89578-2.4821-1.09626-1.73747-1.09626-4.05409 0-3.72315 2.33731-5.77087 2.35799-2.04773 6.70166-2.04773 0.97215 0 2.02704 0.14478 1.07558 0.12411 1.61337 0.2689zm-17.97451 26.43432q0 1.572 1.40652 2.42005 1.4272 0.84805 3.99203 0.84805 3.97136 0 5.91567-1.13763t1.94431-3.01988q0-1.48926-1.07558-2.13047-1.05489-0.62052-3.95067-0.62052h-3.68177q-2.0891 0-3.33015 0.97215-1.22036 0.99284-1.22036 2.66825zm2.08909-19.0294q0 2.15115 1.09626 3.30946 1.11695 1.15831 3.18536 1.15831 4.21956 0 4.21956-4.50914 0-2.23389-1.05489-3.43357-1.0342-1.22036-3.16467-1.22036-2.10978 0-3.20604 1.19968-1.07558 1.19968-1.07558 3.49562z" style="font-feature-settings:normal;font-variant-caps:normal;font-variant-ligatures:normal;font-variant-numeric:normal"/>
   </g>
  </g>
 </g>
</svg>
