<svg version="1" xmlns="http://www.w3.org/2000/svg" width="933.333" height="933.333" viewBox="0 0 700.000000 700.000000"><path d="M126.8 16.1c-.7.5-1 88.8-1 275.5 0 151.2.1 275.8.1 277l.1 2.1 58.5-.1c32.2 0 58.5-.2 58.6-.5.1-.3.2-44.8.3-98.8.1-85.9.3-98.4 1.6-99.7 2.3-2.1 48.2-34.8 48.4-34.4.1.2 13.2 21.2 29.1 46.8 15.8 25.6 29.8 48.1 31 50 1.3 1.9 6.9 10.9 12.5 20s11.2 18.1 12.4 20c1.3 1.9 5.2 8.2 8.8 14 3.6 5.8 14.8 23.8 24.9 40 10.1 16.2 18.6 29.8 18.8 30.3.2.5 2 3.5 4.1 6.6l3.7 5.6 66.6.1c62.6 0 66.5-.1 65.6-1.7-.9-1.8-29.5-47.3-35.4-56.4-1.7-2.8-5.6-8.8-8.5-13.5-2.9-4.7-7.6-12.1-10.5-16.5-2.8-4.4-6-9.4-7.1-11.2-2.1-3.6-17.2-27.5-26.5-42.2-3.2-5.1-5.9-9.5-5.9-9.7 0-.3-.5-1-1.1-1.7-.6-.7-9.1-14-18.9-29.7-9.8-15.7-18.3-29-18.9-29.7-.6-.7-1.1-1.5-1.1-1.8 0-.3-2.8-4.9-6.3-10.3-3.5-5.3-7.2-11.2-8.3-13-1-1.8-10.4-16.7-20.9-33.2-10.4-16.5-19.5-30.7-20-31.7-.6-1-1.9-3.1-2.9-4.6-1.1-1.7-1.5-3.1-1-3.5.5-.4 2.5-2.7 4.4-5.2 1.9-2.5 4-5.2 4.7-6 7.4-9.3 19.2-24.3 24.8-31.5 3.8-5 7.2-9.2 7.5-9.5.3-.3 12.3-15.4 26.5-33.5 14.2-18.2 30.9-39.3 37-47 6.1-7.7 16.2-20.5 22.5-28.5 6.3-8 14.6-18.6 18.5-23.5 3.9-5 15.6-19.8 26-33s19.4-24.3 19.9-24.7c.6-.4.7-1 .3-1.4-.4-.4-29.4-.8-64.3-.8-47.6-.1-64.1.2-65.4 1.1-.9.6-11.7 13.8-24.1 29.3-12.3 15.5-31.6 39.8-42.9 53.9-11.3 14.2-21.8 27.5-23.5 29.6-1.6 2.1-3.5 4.3-4 4.9-.6.6-6.2 7.6-12.5 15.6s-12 15.2-12.7 16c-16.6 20.1-33.3 42-49.4 64.9-1.4 2-7.6 10.8-13.8 19.6-6.2 8.8-11.8 16.6-12.5 17.2-.9 1-1.2-28.3-1.1-124.2 0-69.1-.2-126.1-.5-126.8-.4-.9-13.9-1.2-57.8-1.2-31.6 0-57.9.3-58.4.6zM440.3 629.7v43.8h10.5c12.2 0 11.8.4 11.6-10.4-.1-6.9-.1-7.1 3.3-9.7l3.5-2.6 1.6 2.3c.9 1.3 3.9 6 6.5 10.4 2.7 4.4 5.3 8.4 5.8 9 1.4 1.4 25.1 1.3 24.5-.1-.2-.6-3.7-6.2-7.8-12.5-10.3-15.9-13.6-21.2-14-22.5-.3-1.1 1.6-3.6 14-18.6 4-4.8 6.9-8.8 6.5-8.9-1-.1-17.8-.1-21.4 0-2.1.1-4.3 2.3-11.5 11.7-13.7 17.8-12.5 16.6-11.8 12 .3-2.1.6-13.6.7-25.5l.2-21.6-11.1-.3-11-.3-.1 43.8zM322.5 602.6c-1.4 3.1-2.5 6-2.5 6.5 0 .4-2.1 2.2-4.7 4-2.7 1.8-4.9 3.3-5.1 3.4-.1.2-.4 2-.7 4.1-.4 4.9.8 6.5 4.6 5.7l2.9-.6.1 15.4c0 8.5.3 16.7.5 18.4.7 4.2 4.8 10.8 7.6 12.3 6.1 3.1 18.6 3.5 26.4.9l3.9-1.4.2-8.1.2-8-3.2.9c-1.7.5-4.9.9-6.9.9-5.9 0-6.7-2.1-6.7-17.6v-13.2l7.7.1 7.7.2.3-8.3c.2-7.3.1-8.2-1.5-8.3-1 0-4.5-.1-7.8-.2l-6-.2v-6l-.1-6-7.2-.3-7.2-.3-2.5 5.7zM160.9 609.1c-5.5.8-10 3-13.2 6.5l-2.5 2.6-1.4-4.3-1.4-4.3-7.9.2c-4.3.1-8 .4-8.3.7-.8.8-.5 61.5.2 62.3.4.4 5.4.7 11 .7h10.3V658c0-16.2.7-24.1 2.6-27.5 3.8-7.2 12.6-5.4 14 2.8.3 1.8.5 11.4.4 21.4-.2 15.5 0 18.3 1.3 18.6.8.2 5.8.3 11 .2l9.5-.1.2-15.9c.2-25 1.4-29.9 7.7-31 4.3-.9 7.1.6 8.4 4.4.6 1.6 1.1 11.6 1.2 22.2 0 10.6.5 19.6 1 19.9.7.4 15 .5 19.7.1 1.9-.2 1.5-44.9-.3-51.3-2.5-8.2-9.1-12.6-19.4-12.7-7.2-.1-11.5 1.2-16.2 5l-3.9 3-3.1-2.6c-5.6-4.7-12.9-6.6-20.9-5.4zM264.8 609.1c-7.5.8-16 5.1-19.8 9.9-4.9 6.1-6.3 11.3-6.4 22.5-.1 8.8.2 10.7 2.5 15.6 4.4 9.4 11.5 14.8 21.9 16.7 23.6 4.3 40-10.8 38.3-35.3-1.1-15.5-11.5-27.6-25.3-29.2-1.9-.2-3.9-.5-4.5-.7-.5-.1-3.6.1-6.7.5zm9.9 17.4c3.2 2.2 4.2 6.6 4 16.4-.2 7.3-.6 9.5-2.3 11.8-2.2 2.9-5.8 3.9-10.1 2.8-6.6-1.6-8.1-23.8-2.1-30.3 2.5-2.6 7.3-2.9 10.5-.7zM389.3 609.6c-17.1 2.9-25.6 14.7-24.8 34.4.4 8.3 2.9 15.1 7.7 20.5 6.5 7.4 14.8 10.5 26.6 9.8 18.7-1 29.4-14 28.7-34.6-.7-16.2-9.3-27.2-23.5-30-5.8-1.1-8.7-1.1-14.7-.1zm11.4 16.9c2.9 2 4.6 7.8 4.6 15-.2 12-2.7 16.5-9.3 16.5-6.2 0-9.2-5.1-9.3-15.4 0-11.8 3.1-17.6 9.3-17.6 1.4 0 3.5.7 4.7 1.5zM540.7 609.1c-8.6.9-14.6 3.9-19.6 9.6-5.1 5.8-7.4 12.7-7.4 22.4-.1 12.9 3.5 21 12.1 27.6 9.6 7.3 27.2 7.8 38 .9 17.7-11.2 17.4-44.8-.7-56-3-1.8-8.7-3.8-14.6-5-.5-.1-4 .1-7.8.5zm10.9 18.7c4.6 6.2 3.4 26.5-1.6 29.2-1 .6-3.4 1-5.3 1-6 0-8.8-5.3-8.8-16.6 0-8.3 2-14 5.3-15.4 3.2-1.3 8.8-.3 10.4 1.8z"/></svg>