<svg version="1" xmlns="http://www.w3.org/2000/svg" width="933.333" height="933.333" viewBox="0 0 700.000000 700.000000"><path d="M120.4 298.3V567l72.9-.2 73-.3V387.2l3.3-1.8c1.8-1.1 11.4-6.8 21.4-12.8 9.9-6 18.2-10.7 18.4-10.5.2.2 3.6 6.7 7.6 14.4 4 7.7 10.5 20.3 14.5 28 4 7.7 10.4 20.1 14.2 27.5 6.8 13.1 10.4 20.1 32.3 62.5 5.7 11 14 27 18.4 35.6 4.5 8.5 10.6 20.3 13.6 26.2l5.5 10.7h81.8c44.9 0 81.7-.3 81.7-.8 0-.4-.6-1.6-1.4-2.7-.7-1.1-2.8-4.7-4.6-8-1.8-3.3-8.1-14.6-14-25-11.7-20.8-11.4-20.2-27.5-49-6.1-11-14.1-25.2-17.7-31.5-7.7-13.5-9.1-15.9-14.9-26.5-2.4-4.4-4.9-8.9-5.6-10-.7-1.1-1.6-2.7-2-3.5-.4-.8-4.5-8.3-9.2-16.5-4.7-8.3-8.5-15.3-8.4-15.7.1-.3-.4-1.2-1.2-1.8-.8-.7-1.5-1.6-1.5-2 0-.5-1.9-4.1-4.3-8.2-2.4-4-5.7-9.8-7.4-12.8-1.6-3-4-7.3-5.3-9.5-31.7-56.4-40.3-72.1-40.3-73 0-.5 11.4-17.2 25.3-37s34.2-48.6 45-64c10.8-15.4 27.9-39.7 38-54 17.4-24.8 24.9-35.3 29.4-42 1.2-1.7 2.3-3.2 2.6-3.5.3-.3 2.8-3.7 5.5-7.7 2.8-4 5.9-8.5 7-10 5.7-7.9 15.5-22.1 15.5-22.4 0-1-158-.3-158.8.6-.9.9-6 8.4-32.7 47.5-16.5 24.1-39.4 57.5-40.2 58.5-.4.6-4.6 6.6-9.2 13.5-4.7 6.9-9.6 14.1-11 16.1-1.4 2-3.2 4.5-3.8 5.5-.7 1.1-7.2 10.4-14.4 20.9-25.1 36.2-34.2 50.2-44.7 68.5-.5.8-.9-49.3-.9-114.3 0-63.6-.3-116.1-.7-116.5-.4-.4-33.3-.7-73-.7h-72.2v268.8zM442.4 625.9l.1 44.6 11.3.1H465v-8.5c0-7.9.2-8.7 2.7-11.3 1.5-1.5 3.2-2.8 3.7-2.8.6 0 4.2 5.1 8 11.3l6.9 11.4 12.7-.1h12.7l-3.9-6.6c-2.2-3.6-5.1-7.9-6.4-9.7-1.3-1.7-2.4-3.4-2.4-3.8 0-.3-2.5-4.2-5.5-8.7l-5.4-8.2 2.6-3.5c1.5-2 2.9-3.8 3.3-4.1 1-1 16-19.7 16-20.1 0-.2-5.5-.4-12.1-.4l-12.2.1-6.9 8.4c-3.8 4.7-8.5 10.9-10.4 13.7-2 2.9-3.7 5.3-3.8 5.3-.1 0 0-11.7.1-25.9l.3-26-11.3.1-11.4.1.1 44.6zM324.6 593.2c-.7.4-2.3 3.4-3.5 6.6-1.8 4.8-3.2 6.6-7.5 9.8-4.5 3.4-5.2 4.4-5.3 7.7-.2 4 1.4 5.6 5.5 5.2 1.2-.1 2.2.1 2.3.4 0 .3.1 8.3.2 17.7.2 16 .4 17.3 2.8 22 3.5 6.9 7.6 8.8 19.4 8.7 5.1 0 10.7-.6 13-1.4l4-1.4.2-8.4c.2-7.5.1-8.2-1.5-7.6-.9.4-4 .9-6.8 1.2-8 .9-8.4 0-8.4-17.1v-14.3l8 .2 8.1.2-.3-8.6-.3-8.6-7.7.1-7.7.1-.3-6.5-.3-6.5-6.3-.2c-3.4 0-6.8.3-7.6.7zM154.5 605c-4.5 1-9.1 3.6-11.4 6.6-2.5 3.1-2.6 3-4.4-2.1l-1.4-3.9-7.4-.1c-4.1-.1-7.9 0-8.4.2-.7.2-1 11.8-1 32.6v32.2l11.3.1H143l.1-17.5c.1-19.9.3-22.4 2.7-26.5 3.4-5.8 11-5.7 13.4.1.6 1.7 1.1 11 1.2 23.3l.2 20.5 10.8.1c6.8 0 10.9-.4 11.2-1 .1-.6.4-9.9.6-20.6.3-16.9.6-20 2.1-22.3 3.8-5.9 10.4-6 13.4-.4 1.4 2.7 1.7 6.4 1.7 23.8l.1 20.6 11-.1 11-.1.2-23c.2-24.3-.4-30-4-35.2-6.3-9.3-25.9-10.2-34.8-1.7l-2.7 2.6-4.6-3.6c-2.6-1.9-6.1-3.8-7.9-4.1-5.4-.9-11-1.1-14.2-.5zM260.4 605.1c-12.4 2.2-21.4 10.9-24.2 23.4-1.2 5.6-.7 17.3.9 22 3.1 9 8.5 15.1 16.9 18.9 3.5 1.5 6.6 2 14 2 8.2 0 10.2-.3 15.1-2.7 8.6-4 15.2-12.9 16.5-22 2.8-20.1-5.2-35.9-20.6-40.6-4.7-1.4-13.6-1.9-18.6-1zm11.1 16.9c3.6 1.4 5.6 6.9 5.8 15.4.1 12-3 17.6-9.8 17.6-6.1-.1-8.6-4.2-9-15.2-.6-14.7 4.2-21.2 13-17.8zM390 605.1c-16.9 2.7-26.4 16.1-25.3 35.4 1.1 20.4 13.8 31.7 34.5 31 12.4-.4 21.3-5.7 26.4-15.7 4.8-9.3 5-23.5.6-33.8-5.4-12.5-20.3-19.5-36.2-16.9zm10.5 16.9c3.4 1.3 5.6 6.8 6 14.4.4 12.3-2.8 18.6-9.5 18.6-7 0-10.5-7.5-9.4-20.6.8-10.6 5.6-15.2 12.9-12.4zM540.9 605.5c-14.6 3-23 13.8-23.5 30.1-.8 22 10.4 35.2 30.4 35.9 17.2.6 28.4-6.9 32.8-22.1 2.1-7.4 1.5-19.9-1.4-26.6-6.2-14.2-20.9-20.9-38.3-17.3zm11.8 16.5c3.9 1.4 5.9 5.9 6.2 14.1.3 8.2-1.5 15.5-4.2 17.4-5 3.5-11.5 1-13.5-5.1-1.5-4.6-1.2-17.4.5-21.5 2-5.2 5.6-6.7 11-4.9z"/></svg>