<?xml version="1.0" encoding="UTF-8"?>
<svg width="2048" height="1024" version="1.1" viewBox="0 0 542 271" xmlns="http://www.w3.org/2000/svg" xmlns:cc="http://creativecommons.org/ns#" xmlns:dc="http://purl.org/dc/elements/1.1/" xmlns:rdf="http://www.w3.org/1999/02/22-rdf-syntax-ns#">
 <metadata>
  <rdf:RDF>
   <cc:Work rdf:about="">
    <dc:format>image/svg+xml</dc:format>
    <dc:type rdf:resource="http://purl.org/dc/dcmitype/StillImage"/>
    <dc:title/>
    <dc:creator>
     <cc:Agent>
      <dc:title>Cagatay Aydin</dc:title>
     </cc:Agent>
    </dc:creator>
    <dc:publisher>
     <cc:Agent>
      <dc:title>https://www.kmotoko.com</dc:title>
     </cc:Agent>
    </dc:publisher>
    <cc:license rdf:resource="http://creativecommons.org/licenses/by/4.0/"/>
   </cc:Work>
   <cc:License rdf:about="http://creativecommons.org/licenses/by/4.0/">
    <cc:permits rdf:resource="http://creativecommons.org/ns#Reproduction"/>
    <cc:permits rdf:resource="http://creativecommons.org/ns#Distribution"/>
    <cc:requires rdf:resource="http://creativecommons.org/ns#Notice"/>
    <cc:requires rdf:resource="http://creativecommons.org/ns#Attribution"/>
    <cc:permits rdf:resource="http://creativecommons.org/ns#DerivativeWorks"/>
   </cc:License>
  </rdf:RDF>
 </metadata>
 <rect x="-.0749" y=".0362" width="542" height="271" fill="#fff" stroke="#fff" stroke-width=".0723"/>
 <g transform="matrix(.846 0 0 .846 40.7 9.06)">
  <g transform="matrix(1.19,0,0,1.19,-80,-29)" stroke-width=".154" style="font-feature-settings:normal;font-variant-caps:normal;font-variant-ligatures:normal;font-variant-numeric:normal" aria-label="DNSCrypt">
   <g transform="matrix(.918 0 0 .918 26.2 21.3)">
    <path d="m276 223q0 10.2-5.65 15.6-5.65 5.37-16.3 5.37h-11.5v-41.1h12.7q9.82 0 15.3 5.29t5.46 14.9zm-7.09 0.225q0-14.8-13.8-14.8h-5.82v29.8h4.78q14.9 0 14.9-15.1z" style="font-feature-settings:normal;font-variant-caps:normal;font-variant-ligatures:normal;font-variant-numeric:normal"/>
    <path d="m319 244h-8.24l-20.2-32.8h-0.225l0.141 1.83q0.394 5.23 0.394 9.56v21.4h-6.1v-41.1h8.16l20.2 32.6h0.169q-0.0562-0.647-0.225-4.7-0.169-4.08-0.169-6.36v-21.5h6.16z" style="font-feature-settings:normal;font-variant-caps:normal;font-variant-ligatures:normal;font-variant-numeric:normal"/>
    <path d="m354 233q0 5.48-3.97 8.61-3.97 3.12-10.9 3.12t-11.4-2.17v-6.36q2.81 1.32 5.96 2.08 3.18 0.759 5.91 0.759 3.99 0 5.88-1.52 1.91-1.52 1.91-4.08 0-2.31-1.74-3.91t-7.2-3.8q-5.63-2.28-7.93-5.2-2.31-2.93-2.31-7.03 0-5.15 3.66-8.1t9.82-2.95q5.91 0 11.8 2.59l-2.14 5.48q-5.48-2.31-9.79-2.31-3.26 0-4.95 1.43-1.69 1.41-1.69 3.74 0 1.6 0.675 2.76 0.675 1.13 2.22 2.14 1.55 1.01 5.57 2.67 4.53 1.88 6.64 3.52 2.11 1.63 3.09 3.68t0.984 4.84z" style="font-feature-settings:normal;font-variant-caps:normal;font-variant-ligatures:normal;font-variant-numeric:normal"/>
    <g fill="#d33682">
     <path d="m379 208q-5.79 0-9.11 4.11t-3.32 11.3q0 7.57 3.18 11.4 3.21 3.88 9.25 3.88 2.62 0 5.06-0.506 2.45-0.534 5.09-1.35v5.77q-4.84 1.83-11 1.83-9.03 0-13.9-5.46-4.84-5.48-4.84-15.7 0-6.41 2.33-11.2 2.36-4.81 6.81-7.37 4.44-2.56 10.4-2.56 6.3 0 11.6 2.64l-2.42 5.6q-2.08-0.984-4.42-1.72-2.31-0.759-4.87-0.759z"/>
     <path d="m414 212q2 0 3.29 0.281l-0.647 6.16q-1.41-0.338-2.93-0.338-3.97 0-6.44 2.59-2.45 2.59-2.45 6.72v16.3h-6.61v-31.1h5.18l0.872 5.48h0.338q1.55-2.78 4.02-4.42 2.5-1.63 5.37-1.63z"/>
     <path d="m418 213h7.2l6.33 17.6q1.43 3.77 1.91 7.09h0.225q0.253-1.55 0.928-3.74 0.675-2.22 7.14-21h7.14l-13.3 35.2q-3.63 9.7-12.1 9.7-2.19 0-4.28-0.478v-5.23q1.49 0.338 3.4 0.338 4.78 0 6.72-5.54l1.15-2.93z"/>
     <path d="m469 245q-5.91 0-9.17-4.25h-0.394q0.394 3.94 0.394 4.78v12.7h-6.61v-44.9h5.34q0.225 0.872 0.928 4.16h0.338q3.09-4.73 9.28-4.73 5.82 0 9.06 4.22 3.26 4.22 3.26 11.8 0 7.62-3.32 11.9-3.29 4.28-9.11 4.28zm-1.6-26.8q-3.94 0-5.77 2.31-1.8 2.31-1.8 7.37v0.984q0 5.68 1.8 8.24 1.8 2.53 5.88 2.53 3.43 0 5.29-2.81t1.86-8.02q0-5.23-1.86-7.9-1.83-2.7-5.4-2.7z"/>
     <path d="m501 239q2.42 0 4.84-0.759v4.98q-1.1 0.478-2.84 0.788-1.72 0.338-3.57 0.338-9.39 0-9.39-9.9v-16.8h-4.25v-2.93l4.56-2.42 2.25-6.58h4.08v6.92h8.86v5.01h-8.86v16.7q0 2.39 1.18 3.54 1.21 1.13 3.15 1.13z"/>
    </g>
   </g>
  </g>
  <g transform="matrix(0 -.915 .915 0 246 435)">
   <g transform="translate(41.5,-15.1)" fill="#d33682" stroke-width=".265" style="font-feature-settings:normal;font-variant-caps:normal;font-variant-ligatures:normal;font-variant-numeric:normal" aria-label="DNS">
    <path d="m212-160q0 24.9-13.8 38.2-13.8 13.2-39.9 13.2h-28.2v-101h31.1q24 0 37.4 13t13.4 36.4zm-17.4 0.551q0-36.2-33.8-36.2h-14.3v73.1h11.7q36.4 0 36.4-36.9z" style="font-feature-settings:normal;font-variant-caps:normal;font-variant-ligatures:normal;font-variant-numeric:normal"/>
    <path d="m317-108h-20.2l-49.5-80.3h-0.551l0.345 4.48q0.965 12.8 0.965 23.4v52.4h-15v-101h20l49.4 79.9h0.413q-0.138-1.58-0.551-11.5-0.413-9.99-0.413-15.6v-52.8h15.1z" style="font-feature-settings:normal;font-variant-caps:normal;font-variant-ligatures:normal;font-variant-numeric:normal"/>
    <path d="m402-136q0 13.4-9.72 21.1-9.72 7.65-26.8 7.65-17.1 0-28-5.31v-15.6q6.89 3.24 14.6 5.1 7.79 1.86 14.5 1.86 9.78 0 14.4-3.72 4.69-3.72 4.69-9.99 0-5.65-4.27-9.58t-17.6-9.3q-13.8-5.58-19.4-12.7t-5.65-17.2q0-12.6 8.96-19.8t24-7.23q14.5 0 28.8 6.34l-5.24 13.4q-13.4-5.65-24-5.65-7.99 0-12.1 3.51-4.13 3.45-4.13 9.16 0 3.93 1.65 6.75 1.65 2.76 5.44 5.24t13.6 6.55q11.1 4.62 16.3 8.61 5.17 4 7.58 9.03t2.41 11.9z" style="font-feature-settings:normal;font-variant-caps:normal;font-variant-ligatures:normal;font-variant-numeric:normal"/>
   </g>
   <g transform="translate(41.5,-15.1)" fill="#d33682" stroke-width="1.28" style="font-feature-settings:normal;font-variant-caps:normal;font-variant-ligatures:normal;font-variant-numeric:normal" aria-label=" HTTPS">
    <path d="m258-44.2h-7.18v-19.7h-20.2v19.7h-7.15v-43.7h7.15v17.9h20.2v-17.9h7.18z" style="font-feature-settings:normal;font-variant-caps:normal;font-variant-ligatures:normal;font-variant-numeric:normal"/>
    <path d="m285-44.2h-7.15v-37.6h-12.9v-6.13h32.9v6.13h-12.9z" style="font-feature-settings:normal;font-variant-caps:normal;font-variant-ligatures:normal;font-variant-numeric:normal"/>
    <path d="m320-44.2h-7.15v-37.6h-12.9v-6.13h32.9v6.13h-12.9z" style="font-feature-settings:normal;font-variant-caps:normal;font-variant-ligatures:normal;font-variant-numeric:normal"/>
    <path d="m368-74.7q0 6.85-4.49 10.5t-12.8 3.65h-4.55v16.4h-7.15v-43.7h12.6q8.19 0 12.3 3.35 4.1 3.35 4.1 9.87zm-21.8 8.13h3.8q5.5 0 8.07-1.91t2.57-5.98q0-3.77-2.3-5.62t-7.18-1.85h-4.96z" style="font-feature-settings:normal;font-variant-caps:normal;font-variant-ligatures:normal;font-variant-numeric:normal"/>
    <path d="m402-56q0 5.83-4.22 9.15t-11.6 3.32-12.1-2.3v-6.76q2.99 1.41 6.34 2.21 3.38 0.807 6.28 0.807 4.25 0 6.25-1.61 2.03-1.61 2.03-4.34 0-2.45-1.85-4.16-1.85-1.7-7.65-4.04-5.98-2.42-8.43-5.53t-2.45-7.48q0-5.47 3.89-8.61t10.4-3.14q6.28 0 12.5 2.75l-2.27 5.83q-5.83-2.45-10.4-2.45-3.47 0-5.26 1.52-1.79 1.5-1.79 3.98 0 1.7 0.718 2.93 0.718 1.2 2.36 2.27 1.64 1.08 5.92 2.84 4.81 2 7.06 3.74 2.24 1.73 3.29 3.92 1.05 2.18 1.05 5.14z" style="font-feature-settings:normal;font-variant-caps:normal;font-variant-ligatures:normal;font-variant-numeric:normal"/>
   </g>
   <g transform="translate(41.5,-15.1)" stroke-width=".654" style="font-feature-settings:normal;font-variant-caps:normal;font-variant-ligatures:normal;font-variant-numeric:normal" aria-label="over">
    <path d="m146-54.3q0 4.15-2.13 6.48t-5.93 2.33q-2.37 0-4.2-1.07-1.82-1.07-2.8-3.08t-0.98-4.66q0-4.12 2.11-6.43t5.96-2.31q3.68 0 5.82 2.37 2.14 2.36 2.14 6.37zm-12.3 0q0 5.87 4.34 5.87 4.29 0 4.29-5.87 0-5.81-4.32-5.81-2.27 0-3.29 1.5-1.01 1.5-1.01 4.3z" style="font-feature-settings:normal;font-variant-caps:normal;font-variant-ligatures:normal;font-variant-numeric:normal"/>
    <path d="m154-45.8-6.43-16.9h3.8l3.45 9.85q0.888 2.48 1.07 4.01h0.123q0.138-1.1 1.07-4.01l3.45-9.85h3.83l-6.46 16.9z" style="font-feature-settings:normal;font-variant-caps:normal;font-variant-ligatures:normal;font-variant-numeric:normal"/>
    <path d="m174-45.5q-3.95 0-6.19-2.3-2.22-2.31-2.22-6.36 0-4.15 2.07-6.53 2.07-2.37 5.68-2.37 3.35 0 5.3 2.04t1.95 5.61v1.95h-11.3q0.0766 2.47 1.33 3.8 1.26 1.32 3.54 1.32 1.5 0 2.79-0.276 1.3-0.291 2.79-0.95v2.93q-1.32 0.628-2.67 0.888t-3.08 0.26zm-0.659-14.8q-1.72 0-2.76 1.09-1.03 1.09-1.23 3.17h7.69q-0.0306-2.1-1.01-3.17-0.98-1.09-2.7-1.09z" style="font-feature-settings:normal;font-variant-caps:normal;font-variant-ligatures:normal;font-variant-numeric:normal"/>
    <path d="m194-63.1q1.09 0 1.79 0.153l-0.352 3.35q-0.766-0.184-1.59-0.184-2.16 0-3.51 1.41-1.33 1.41-1.33 3.66v8.85h-3.6v-16.9h2.82l0.475 2.99h0.184q0.843-1.52 2.19-2.41 1.36-0.888 2.93-0.888z" style="font-feature-settings:normal;font-variant-caps:normal;font-variant-ligatures:normal;font-variant-numeric:normal"/>
   </g>
  </g>
  <g transform="matrix(0 .601 -3.52 0 1079 61)" style="font-feature-settings:normal;font-variant-caps:normal;font-variant-ligatures:normal;font-variant-numeric:normal" aria-label="|">
   <path d="m212 163h5.69v82.8h-5.69z" stroke-width=".43"/>
  </g>
  <g transform="matrix(1.55,0,0,1.55,-101,-135)">
   <g transform="matrix(1.19,0,0,1.19,156,91.9)">
    <g transform="translate(-196,-3.98)" stroke-width=".2" style="font-feature-settings:normal;font-variant-caps:normal;font-variant-ligatures:normal;font-variant-numeric:normal" aria-label="dnscrypt-proxy">
     <g fill="#d33682">
      <path d="m245 45.2q-3.8 0-5.93-2.75t-2.13-7.72q0-4.99 2.15-7.76 2.17-2.79 5.98-2.79 4 0 6.09 2.95h0.22q-0.312-2.18-0.312-3.45v-7.39h4.33v28.6h-3.38l-0.752-2.66h-0.202q-2.07 3.03-6.07 3.03zm1.16-3.49q2.66 0 3.87-1.49 1.21-1.5 1.25-4.86v-0.606q0-3.83-1.25-5.45-1.25-1.61-3.91-1.61-2.28 0-3.5 1.85-1.23 1.83-1.23 5.25 0 3.38 1.19 5.16 1.19 1.76 3.58 1.76z" style="font-feature-settings:normal;font-variant-caps:normal;font-variant-ligatures:normal;font-variant-numeric:normal"/>
      <path d="m280 44.8h-4.33v-12.5q0-2.35-0.954-3.5-0.936-1.16-2.99-1.16-2.73 0-4 1.61t-1.27 5.41v10.1h-4.31v-20.3h3.38l0.606 2.66h0.22q0.917-1.45 2.61-2.24t3.74-0.789q7.3 0 7.3 7.43z" style="font-feature-settings:normal;font-variant-caps:normal;font-variant-ligatures:normal;font-variant-numeric:normal"/>
      <path d="m299 39.1q0 2.97-2.17 4.57-2.17 1.58-6.2 1.58-4.06 0-6.51-1.23v-3.72q3.58 1.65 6.66 1.65 3.98 0 3.98-2.4 0-0.771-0.44-1.28-0.44-0.514-1.45-1.06t-2.81-1.25q-3.5-1.36-4.75-2.72-1.23-1.36-1.23-3.52 0-2.61 2.09-4.04 2.11-1.45 5.72-1.45 3.58 0 6.77 1.45l-1.39 3.25q-3.28-1.36-5.52-1.36-3.41 0-3.41 1.94 0 0.954 0.881 1.61 0.899 0.661 3.89 1.82 2.51 0.972 3.65 1.78t1.69 1.87q0.55 1.05 0.55 2.51z" style="font-feature-settings:normal;font-variant-caps:normal;font-variant-ligatures:normal;font-variant-numeric:normal"/>
      <path d="m312 45.2q-4.61 0-7.01-2.68-2.39-2.7-2.39-7.72 0-5.12 2.5-7.87 2.51-2.75 7.25-2.75 3.21 0 5.78 1.19l-1.3 3.47q-2.73-1.06-4.51-1.06-5.27 0-5.27 6.99 0 3.41 1.3 5.14 1.32 1.71 3.85 1.71 2.88 0 5.45-1.43v3.76q-1.16 0.679-2.48 0.972-1.3 0.294-3.17 0.294z" style="font-feature-settings:normal;font-variant-caps:normal;font-variant-ligatures:normal;font-variant-numeric:normal"/>
      <path d="m333 24.2q1.3 0 2.15 0.183l-0.422 4.02q-0.917-0.22-1.91-0.22-2.59 0-4.2 1.69-1.6 1.69-1.6 4.39v10.6h-4.31v-20.3h3.38l0.569 3.58h0.22q1.01-1.82 2.62-2.88 1.63-1.06 3.5-1.06z" style="font-feature-settings:normal;font-variant-caps:normal;font-variant-ligatures:normal;font-variant-numeric:normal"/>
      <path d="m336 24.5h4.7l4.13 11.5q0.936 2.46 1.25 4.62h0.147q0.165-1.01 0.606-2.44 0.44-1.45 4.66-13.7h4.66l-8.68 23q-2.37 6.33-7.89 6.33-1.43 0-2.79-0.312v-3.41q0.972 0.22 2.22 0.22 3.12 0 4.39-3.61l0.752-1.91z" style="font-feature-settings:normal;font-variant-caps:normal;font-variant-ligatures:normal;font-variant-numeric:normal"/>
      <path d="m369 45.2q-3.85 0-5.98-2.77h-0.257q0.257 2.57 0.257 3.12v8.31h-4.31v-29.3h3.49q0.147 0.569 0.606 2.72h0.22q2.02-3.08 6.06-3.08 3.8 0 5.91 2.75 2.13 2.75 2.13 7.72t-2.17 7.76q-2.15 2.79-5.95 2.79zm-1.05-17.5q-2.57 0-3.76 1.5-1.17 1.5-1.17 4.81v0.642q0 3.71 1.17 5.38 1.17 1.65 3.83 1.65 2.24 0 3.45-1.83t1.21-5.23q0-3.41-1.21-5.16-1.19-1.76-3.52-1.76z" style="font-feature-settings:normal;font-variant-caps:normal;font-variant-ligatures:normal;font-variant-numeric:normal"/>
      <path d="m390 41.7q1.58 0 3.16-0.495v3.25q-0.716 0.312-1.85 0.514-1.12 0.22-2.33 0.22-6.13 0-6.13-6.46v-10.9h-2.77v-1.91l2.97-1.58 1.47-4.29h2.66v4.51h5.78v3.27h-5.78v10.9q0 1.56 0.771 2.31 0.789 0.734 2.06 0.734z" style="font-feature-settings:normal;font-variant-caps:normal;font-variant-ligatures:normal;font-variant-numeric:normal"/>
     </g>
     <g transform="translate(-269,17.5)">
      <path d="m506 52.6v-3.67h9.43v3.67z" style="font-feature-settings:normal;font-variant-caps:normal;font-variant-ligatures:normal;font-variant-numeric:normal"/>
      <path d="m531 61.2q-3.85 0-5.98-2.77h-0.257q0.257 2.57 0.257 3.12v8.31h-4.31v-29.3h3.49q0.147 0.569 0.606 2.72h0.22q2.02-3.08 6.06-3.08 3.8 0 5.91 2.75 2.13 2.75 2.13 7.72t-2.17 7.76q-2.15 2.79-5.95 2.79zm-1.05-17.5q-2.57 0-3.76 1.5-1.17 1.5-1.17 4.81v0.642q0 3.71 1.17 5.38 1.17 1.65 3.83 1.65 2.24 0 3.45-1.83t1.21-5.23q0-3.41-1.21-5.16-1.19-1.76-3.52-1.76z" style="font-feature-settings:normal;font-variant-caps:normal;font-variant-ligatures:normal;font-variant-numeric:normal"/>
      <path d="m554 40.2q1.3 0 2.15 0.183l-0.422 4.02q-0.917-0.22-1.91-0.22-2.59 0-4.2 1.69-1.6 1.69-1.6 4.39v10.6h-4.31v-20.3h3.38l0.569 3.58h0.22q1.01-1.82 2.62-2.88 1.63-1.06 3.5-1.06z" style="font-feature-settings:normal;font-variant-caps:normal;font-variant-ligatures:normal;font-variant-numeric:normal"/>
      <path d="m578 50.6q0 4.97-2.55 7.76t-7.1 2.79q-2.84 0-5.03-1.28t-3.36-3.69q-1.17-2.4-1.17-5.58 0-4.94 2.53-7.71t7.14-2.77q4.4 0 6.97 2.84 2.57 2.83 2.57 7.63zm-14.8 0q0 7.03 5.19 7.03 5.14 0 5.14-7.03 0-6.95-5.17-6.95-2.72 0-3.95 1.8-1.21 1.8-1.21 5.16z" style="font-feature-settings:normal;font-variant-caps:normal;font-variant-ligatures:normal;font-variant-numeric:normal"/>
      <path d="m587 50.6-6.81-9.93h4.92l4.62 7.1 4.66-7.1h4.88l-6.83 9.93 7.17 10.4h-4.88l-5.01-7.6-4.99 7.6h-4.88z" style="font-feature-settings:normal;font-variant-caps:normal;font-variant-ligatures:normal;font-variant-numeric:normal"/>
      <path d="m601 40.6h4.7l4.13 11.5q0.936 2.46 1.25 4.62h0.147q0.165-1.01 0.606-2.44 0.44-1.45 4.66-13.7h4.66l-8.68 23q-2.37 6.33-7.89 6.33-1.43 0-2.79-0.312v-3.41q0.972 0.22 2.22 0.22 3.12 0 4.39-3.61l0.752-1.91z" style="font-feature-settings:normal;font-variant-caps:normal;font-variant-ligatures:normal;font-variant-numeric:normal"/>
     </g>
    </g>
   </g>
  </g>
 </g>
</svg>
