<?xml version="1.0" encoding="UTF-8"?>
<svg version="1.1" viewBox="0 0 542 271" xmlns="http://www.w3.org/2000/svg" xmlns:cc="http://creativecommons.org/ns#" xmlns:dc="http://purl.org/dc/elements/1.1/" xmlns:rdf="http://www.w3.org/1999/02/22-rdf-syntax-ns#">
 <metadata>
  <rdf:RDF>
   <cc:Work rdf:about="">
    <dc:format>image/svg+xml</dc:format>
    <dc:type rdf:resource="http://purl.org/dc/dcmitype/StillImage"/>
    <dc:title/>
   </cc:Work>
  </rdf:RDF>
 </metadata>
 <g transform="translate(0 -26.1)">
  <g stroke-width=".265" style="font-feature-settings:normal;font-variant-caps:normal;font-variant-ligatures:normal;font-variant-numeric:normal" aria-label="kmotoko">
   <path d="m75.5 162 6.19-7.91 14.6-15.8h16l-20.6 22.6 21.9 29.4h-16.4l-15-21.1-6.09 4.88v16.2h-14.2v-72.4h14.2v32.3l-0.744 11.8z" fill="#454545"/>
   <g fill="#d33682">
    <path d="m168 190h-14.2v-30.4q0-5.63-1.91-8.42-1.86-2.84-5.91-2.84-5.44 0-7.91 4-2.46 4-2.46 13.2v24.5h-14.2v-52h10.8l1.91 6.65h0.791q2.09-3.58 6.05-5.58 3.95-2.05 9.07-2.05 11.7 0 15.8 7.63h1.26q2.09-3.63 6.14-5.63 4.09-2 9.21-2 8.84 0 13.3 4.56 4.56 4.51 4.56 14.5v33.9h-14.2v-30.4q0-5.63-1.91-8.42-1.86-2.84-5.91-2.84-5.21 0-7.81 3.72-2.56 3.72-2.56 11.8z"/>
    <path d="m226 164q0 7.72 2.51 11.7 2.56 3.95 8.28 3.95 5.67 0 8.14-3.91 2.51-3.95 2.51-11.7 0-7.72-2.51-11.6-2.51-3.86-8.23-3.86-5.67 0-8.19 3.86-2.51 3.81-2.51 11.6zm36 0q0 12.7-6.7 19.9-6.7 7.16-18.7 7.16-7.49 0-13.2-3.26-5.72-3.3-8.79-9.44t-3.07-14.3q0-12.7 6.65-19.8 6.65-7.07 18.7-7.07 7.49 0 13.2 3.26 5.72 3.26 8.79 9.35t3.07 14.3z"/>
    <path d="m296 180q3.72 0 8.93-1.63v10.6q-5.3 2.37-13 2.37-8.51 0-12.4-4.28-3.86-4.33-3.86-12.9v-25.1h-6.79v-6l7.81-4.74 4.09-11h9.07v11.1h14.6v10.7h-14.6v25.1q0 3.02 1.67 4.46 1.72 1.44 4.51 1.44z"/>
    <path d="m326 164q0 7.72 2.51 11.7 2.56 3.95 8.28 3.95 5.67 0 8.14-3.91 2.51-3.95 2.51-11.7 0-7.72-2.51-11.6-2.51-3.86-8.23-3.86-5.67 0-8.19 3.86-2.51 3.81-2.51 11.6zm36 0q0 12.7-6.7 19.9-6.7 7.16-18.7 7.16-7.49 0-13.2-3.26-5.72-3.3-8.79-9.44t-3.07-14.3q0-12.7 6.65-19.8 6.65-7.07 18.7-7.07 7.49 0 13.2 3.26 5.72 3.26 8.79 9.35t3.07 14.3z"/>
    <path d="m388 162 6.19-7.91 14.6-15.8h16l-20.6 22.6 21.9 29.4h-16.4l-15-21.1-6.09 4.88v16.2h-14.2v-72.4h14.2v32.3l-0.744 11.8z"/>
    <path d="m444 164q0 7.72 2.51 11.7 2.56 3.95 8.28 3.95 5.67 0 8.14-3.91 2.51-3.95 2.51-11.7 0-7.72-2.51-11.6-2.51-3.86-8.23-3.86-5.67 0-8.19 3.86-2.51 3.81-2.51 11.6zm36 0q0 12.7-6.7 19.9-6.7 7.16-18.7 7.16-7.49 0-13.2-3.26-5.72-3.3-8.79-9.44t-3.07-14.3q0-12.7 6.65-19.8 6.65-7.07 18.7-7.07 7.49 0 13.2 3.26 5.72 3.26 8.79 9.35t3.07 14.3z"/>
   </g>
  </g>
 </g>
</svg>
