<?xml version="1.0" encoding="UTF-8" standalone="no"?>
<svg
   xmlns:dc="http://purl.org/dc/elements/1.1/"
   xmlns:cc="http://creativecommons.org/ns#"
   xmlns:rdf="http://www.w3.org/1999/02/22-rdf-syntax-ns#"
   xmlns:svg="http://www.w3.org/2000/svg"
   xmlns="http://www.w3.org/2000/svg"
   id="svg8"
   version="1.1"
   viewBox="0 0 541.86665 270.93333"
   height="1024"
   width="2048">
  <defs
     id="defs2" />
  <metadata
     id="metadata5">
    <rdf:RDF>
      <cc:Work
         rdf:about="">
        <dc:format>image/svg+xml</dc:format>
        <dc:type
           rdf:resource="http://purl.org/dc/dcmitype/StillImage" />
        <dc:title></dc:title>
      </cc:Work>
    </rdf:RDF>
  </metadata>
  <g
     transform="translate(0,-26.066695)"
     id="layer1">
    <g
       id="text817"
       style="font-style:normal;font-variant:normal;font-weight:bold;font-stretch:normal;font-size:95.25px;line-height:1.25;font-family:'Open Sans';-inkscape-font-specification:'Open Sans, Bold';font-variant-ligatures:normal;font-variant-caps:normal;font-variant-numeric:normal;font-feature-settings:normal;text-align:start;letter-spacing:0px;word-spacing:0px;writing-mode:lr-tb;text-anchor:start;fill:#000000;fill-opacity:1;stroke:none;stroke-width:0.26458332"
       aria-label="kmotoko">
      <path
         id="path842"
         style="fill:#454545;fill-opacity:1"
         d="m 75.539581,161.95917 6.185669,-7.9065 14.557251,-15.81298 h 15.999019 l -20.649898,22.55676 21.905638,29.44006 H 97.166168 l -14.97583,-21.06848 -6.092651,4.88342 v 16.18506 H 61.912506 v -72.36767 h 14.185181 v 32.2771 l -0.744141,11.81323 z" />
      <path
         id="path844"
         style="fill:#d33682;fill-opacity:1"
         d="M 167.62698,190.23651 H 153.4418 v -30.37024 q 0,-5.62756 -1.90686,-8.41809 -1.86035,-2.83703 -5.90661,-2.83703 -5.44153,0 -7.9065,3.99975 -2.46496,3.99976 -2.46496,13.16199 v 24.46362 h -14.18518 v -51.99682 h 10.83654 l 1.90686,6.65075 h 0.79065 q 2.0929,-3.58117 6.04615,-5.58105 3.95324,-2.04639 9.06921,-2.04639 11.67371,0 15.81299,7.62744 h 1.25574 q 2.09289,-3.62768 6.13916,-5.62756 4.09277,-1.99988 9.20874,-1.99988 8.83667,0 13.34802,4.55786 4.55786,4.51135 4.55786,14.51074 v 33.90491 h -14.23169 v -30.37024 q 0,-5.62756 -1.90686,-8.41809 -1.86035,-2.83703 -5.90662,-2.83703 -5.20898,0 -7.81347,3.7207 -2.55799,3.7207 -2.55799,11.81323 z" />
      <path
         id="path846"
         style="fill:#d33682;fill-opacity:1"
         d="m 225.94901,164.14508 q 0,7.72046 2.51147,11.67371 2.55798,3.95324 8.27856,3.95324 5.67408,0 8.13904,-3.90673 2.51148,-3.95325 2.51148,-11.72022 0,-7.72046 -2.51148,-11.58069 -2.51147,-3.86023 -8.23205,-3.86023 -5.67408,0 -8.18555,3.86023 -2.51147,3.81372 -2.51147,11.58069 z m 35.95129,0 q 0,12.6969 -6.69727,19.85925 -6.69726,7.16236 -18.65002,7.16236 -7.48792,0 -13.2085,-3.25562 -5.72058,-3.30212 -8.79016,-9.44128 -3.06958,-6.13916 -3.06958,-14.32471 0,-12.74341 6.65076,-19.81274 6.65076,-7.06934 18.69653,-7.06934 7.48792,0 13.2085,3.25562 5.72058,3.25561 8.79016,9.34826 3.06958,6.09265 3.06958,14.2782 z" />
      <path
         id="path848"
         style="fill:#d33682;fill-opacity:1"
         d="m 295.52615,179.86505 q 3.72071,0 8.92969,-1.62781 v 10.5575 q -5.302,2.37195 -13.02246,2.37195 -8.51111,0 -12.41785,-4.27881 -3.86023,-4.32532 -3.86023,-12.92944 V 148.8902 h -6.79028 v -5.99964 l 7.81348,-4.74389 4.09277,-10.97608 h 9.06921 v 11.0691 h 14.55726 v 10.65051 h -14.55726 v 25.06824 q 0,3.02307 1.67432,4.46484 1.72083,1.44177 4.51135,1.44177 z" />
      <path
         id="path850"
         style="fill:#d33682;fill-opacity:1"
         d="m 326.22195,164.14508 q 0,7.72046 2.51148,11.67371 2.55798,3.95324 8.27856,3.95324 5.67408,0 8.13904,-3.90673 2.51148,-3.95325 2.51148,-11.72022 0,-7.72046 -2.51148,-11.58069 -2.51147,-3.86023 -8.23205,-3.86023 -5.67408,0 -8.18555,3.86023 -2.51148,3.81372 -2.51148,11.58069 z m 35.9513,0 q 0,12.6969 -6.69727,19.85925 -6.69726,7.16236 -18.65002,7.16236 -7.48792,0 -13.2085,-3.25562 -5.72058,-3.30212 -8.79016,-9.44128 -3.06958,-6.13916 -3.06958,-14.32471 0,-12.74341 6.65076,-19.81274 6.65075,-7.06934 18.69653,-7.06934 7.48792,0 13.2085,3.25562 5.72058,3.25561 8.79016,9.34826 3.06958,6.09265 3.06958,14.2782 z" />
      <path
         id="path852"
         style="fill:#d33682;fill-opacity:1"
         d="m 387.52054,161.95917 6.18567,-7.9065 14.55725,-15.81298 h 15.99902 l -20.6499,22.55676 21.90564,29.44006 h -16.37109 l -14.97583,-21.06848 -6.09266,4.88342 v 16.18506 h -14.18518 v -72.36767 h 14.18518 v 32.2771 l -0.74414,11.81323 z" />
      <path
         id="path854"
         style="fill:#d33682;fill-opacity:1"
         d="m 444.35428,164.14508 q 0,7.72046 2.51147,11.67371 2.55799,3.95324 8.27857,3.95324 5.67407,0 8.13904,-3.90673 2.51147,-3.95325 2.51147,-11.72022 0,-7.72046 -2.51147,-11.58069 -2.51148,-3.86023 -8.23206,-3.86023 -5.67407,0 -8.18555,3.86023 -2.51147,3.81372 -2.51147,11.58069 z m 35.95129,0 q 0,12.6969 -6.69726,19.85925 -6.69727,7.16236 -18.65003,7.16236 -7.48791,0 -13.20849,-3.25562 -5.72058,-3.30212 -8.79016,-9.44128 -3.06958,-6.13916 -3.06958,-14.32471 0,-12.74341 6.65075,-19.81274 6.65076,-7.06934 18.69654,-7.06934 7.48791,0 13.20849,3.25562 5.72058,3.25561 8.79016,9.34826 3.06958,6.09265 3.06958,14.2782 z" />
    </g>
  </g>
</svg>
