<?xml version="1.0" encoding="UTF-8"?>
<svg width="2048" height="1536" version="1.1" viewBox="0 0 542 406" xmlns="http://www.w3.org/2000/svg" xmlns:cc="http://creativecommons.org/ns#" xmlns:dc="http://purl.org/dc/elements/1.1/" xmlns:rdf="http://www.w3.org/1999/02/22-rdf-syntax-ns#">
 <metadata>
  <rdf:RDF>
   <cc:Work rdf:about="">
    <dc:format>image/svg+xml</dc:format>
    <dc:type rdf:resource="http://purl.org/dc/dcmitype/StillImage"/>
    <dc:title/>
    <dc:creator>
     <cc:Agent>
      <dc:title>Cagatay Aydin</dc:title>
     </cc:Agent>
    </dc:creator>
    <dc:publisher>
     <cc:Agent>
      <dc:title>https://www.kmotoko.com</dc:title>
     </cc:Agent>
    </dc:publisher>
    <cc:license rdf:resource="http://creativecommons.org/licenses/by/4.0/"/>
   </cc:Work>
   <cc:License rdf:about="http://creativecommons.org/licenses/by/4.0/">
    <cc:permits rdf:resource="http://creativecommons.org/ns#Reproduction"/>
    <cc:permits rdf:resource="http://creativecommons.org/ns#Distribution"/>
    <cc:requires rdf:resource="http://creativecommons.org/ns#Notice"/>
    <cc:requires rdf:resource="http://creativecommons.org/ns#Attribution"/>
    <cc:permits rdf:resource="http://creativecommons.org/ns#DerivativeWorks"/>
   </cc:License>
  </rdf:RDF>
 </metadata>
 <rect x=".0478" y="-.202" width="542" height="406" fill="#fff" stroke="#fff" stroke-width=".0956"/>
 <g transform="matrix(.77641108 0 0 .77641108 -503.53033 113.43027)" stroke-width=".26464844">
  <g transform="rotate(-90)" style="font-feature-settings:normal;font-variant-caps:normal;font-variant-ligatures:normal;font-variant-numeric:normal" aria-label="Linux kernel">
   <g>
    <path d="m-366.8058 732.85571v-61.64351h10.07715v52.99993h26.09941v8.64358z" style="font-feature-settings:normal;font-variant-caps:normal;font-variant-ligatures:normal;font-variant-numeric:normal"/>
    <path d="m-311.06523 732.85571h-9.9085v-46.63319h9.9085zm-10.49879-58.98719q0-2.65632 1.43357-4.08989 1.47573-1.43357 4.17422-1.43357 2.61415 0 4.04772 1.43357 1.47574 1.43357 1.47574 4.08989 0 2.52983-1.47574 4.00557-1.43357 1.43357-4.04772 1.43357-2.69849 0-4.17422-1.43357-1.43357-1.47574-1.43357-4.00557z" style="font-feature-settings:normal;font-variant-caps:normal;font-variant-ligatures:normal;font-variant-numeric:normal"/>
    <path d="m-255.83062 732.85571h-9.95067v-28.6714q0-5.39697-2.19251-8.05329-2.15036-2.65632-6.87271-2.65632-6.28241 0-9.19171 3.71042t-2.9093 12.43833v23.23226h-9.9085v-46.63319h7.75814l1.39141 6.11376h0.50596q2.10819-3.33094 5.98727-5.14399 3.87907-1.81304 8.60142-1.81304 16.7812 0 16.7812 17.07635z" style="font-feature-settings:normal;font-variant-caps:normal;font-variant-ligatures:normal;font-variant-numeric:normal"/>
    <path d="m-209.15527 732.85571-1.3914-6.11375h-0.50597q-2.06603 3.24661-5.90293 5.10182-3.79475 1.85521-8.68575 1.85521-8.47493 0-12.64915-4.21638-4.17422-4.21639-4.17422-12.77564v-30.48445h9.99283v28.75573q0 5.35481 2.19252 8.05329 2.19252 2.65632 6.8727 2.65632 6.24025 0 9.14955-3.71041 2.95147-3.75258 2.95147-12.52266v-23.23227h9.95066v46.63319z" style="font-feature-settings:normal;font-variant-caps:normal;font-variant-ligatures:normal;font-variant-numeric:normal"/>
    <path d="m-176.85778 709.03315-15.64277-22.81063h11.2999l10.62528 16.3174 10.70961-16.3174h11.21558l-15.68494 22.81063 16.48605 23.82256h-11.21557l-11.51073-17.45582-11.46856 17.45582h-11.21557z" style="font-feature-settings:normal;font-variant-caps:normal;font-variant-ligatures:normal;font-variant-numeric:normal"/>
   </g>
   <g fill="#d33682">
    <path d="m-107.66695 708.23204 5.60779-6.99919 14.08272-15.01033h11.426396l-18.762901 20.02782 19.943488 26.60537h-11.637215l-14.968158-20.44945-5.43913 4.46936v15.98009h-9.82417v-65.60691h9.82417v32.00235l-0.50597 8.98089z" style="font-feature-settings:normal;font-variant-caps:normal;font-variant-ligatures:normal;font-variant-numeric:normal"/>
    <path d="m-47.457022 733.69899q-10.878266 0-17.034184-6.32457-6.113754-6.36674-6.113754-17.49799 0-11.4264 5.692116-17.96179t15.642778-6.53539q9.233877 0 14.588683 5.60779 5.354805 5.60779 5.354805 15.43196v5.3548h-31.074737q0.210819 6.78838 3.668252 10.45663 3.457434 3.62609 9.739844 3.62609 4.132054 0 7.673815-0.75895 3.583925-0.80111 7.673816-2.61416v8.05329q-3.626089 1.72872-7.336505 2.4455-3.710417 0.71679-8.474929 0.71679zm-1.813044-40.81458q-4.722348 0-7.589488 2.99363-2.824976 2.99363-3.373106 8.72791h21.166239q-0.08433-5.77644-2.782812-8.72791-2.698485-2.99363-7.420833-2.99363z" style="font-feature-settings:normal;font-variant-caps:normal;font-variant-ligatures:normal;font-variant-numeric:normal"/>
    <path d="m5.5850831 685.37925q2.9936314 0 4.9331669 0.42164l-0.9697676 9.23387q-2.1081911-0.50596-4.3850376-0.50596-5.945099 0-9.6555154 3.87907-3.6682526 3.87907-3.6682526 10.07715v24.37069h-9.9084988v-46.63319h7.758144l1.3070784 8.22195h0.5059659q2.3190102-4.17422 6.0294266-6.61972 3.7525802-2.4455 8.0532902-2.4455z" style="font-feature-settings:normal;font-variant-caps:normal;font-variant-ligatures:normal;font-variant-numeric:normal"/>
    <path d="m60.229405 732.85571h-9.950662v-28.6714q0-5.39697-2.192519-8.05329-2.150355-2.65632-6.872703-2.65632-6.282409 0-9.191713 3.71042t-2.909304 12.43833v23.23226h-9.908498v-46.63319h7.758143l1.391406 6.11376h0.505966q2.108191-3.33094 5.987263-5.14399 3.879072-1.81304 8.60142-1.81304 16.781201 0 16.781201 17.07635z" style="font-feature-settings:normal;font-variant-caps:normal;font-variant-ligatures:normal;font-variant-numeric:normal"/>
    <path d="m94.38209 733.69899q-10.878266 0-17.034185-6.32457-6.113754-6.36674-6.113754-17.49799 0-11.4264 5.692116-17.96179t15.642778-6.53539q9.233875 0 14.588685 5.60779 5.3548 5.60779 5.3548 15.43196v5.3548h-31.074734q0.210819 6.78838 3.668253 10.45663 3.457433 3.62609 9.739843 3.62609 4.132054 0 7.673818-0.75895 3.58392-0.80111 7.67381-2.61416v8.05329q-3.62609 1.72872-7.3365 2.4455-3.710418 0.71679-8.47493 0.71679zm-1.813045-40.81458q-4.722348 0-7.589488 2.99363-2.824976 2.99363-3.373106 8.72791h21.166239q-0.0843-5.77644-2.782812-8.72791-2.698484-2.99363-7.420833-2.99363z" style="font-feature-settings:normal;font-variant-caps:normal;font-variant-ligatures:normal;font-variant-numeric:normal"/>
    <path d="m133.67876 732.85571h-9.9085v-65.60691h9.9085z" style="font-feature-settings:normal;font-variant-caps:normal;font-variant-ligatures:normal;font-variant-numeric:normal"/>
   </g>
  </g>
  <g style="font-feature-settings:normal;font-variant-caps:normal;font-variant-ligatures:normal;font-variant-numeric:normal" aria-label="BPF-JIT">
   <g fill="#d33682">
    <path d="m757.81827 79.963533h22.15154q15.41421 0 22.25362 4.491557 6.89046 4.491557 6.89046 14.189237 0 6.533173-3.36867 10.871613-3.36867 4.33843-9.69768 5.46132v0.5104q7.86023 1.48018 11.53514 5.86965 3.72595 4.33844 3.72595 11.79034 0 10.05496-7.04358 15.77149-6.99254 5.66549-19.49744 5.66549h-26.94934zm12.19866 30.828417h11.7393q7.65606 0 11.17785-2.3989 3.52179-2.44994 3.52179-8.26855 0-5.257164-3.82804-7.605024-3.77699-2.347859-12.04553-2.347859h-10.56537zm0 9.90184v23.63171h12.96427q7.65606 0 11.53513-2.9093 3.93011-2.96035 3.93011-9.28936 0-5.81861-3.98115-8.62583t-12.09658-2.80722z" style="font-feature-settings:normal;font-variant-caps:normal;font-variant-ligatures:normal;font-variant-numeric:normal"/>
    <path d="m876.23204 102.5234q0 11.68825-7.65606 17.91519-7.65607 6.22693-21.79426 6.22693h-7.75815v27.91911h-12.19866v-74.621097h21.48802q13.98508 0 20.92657 5.716527 6.99254 5.716527 6.99254 16.84334zm-37.20847 13.88299h6.48214q9.39143 0 13.78091-3.26658 4.38948-3.26659 4.38948-10.20809 0-6.431091-3.93012-9.595597-3.93011-3.164506-12.2497-3.164506h-8.47271z" style="font-feature-settings:normal;font-variant-caps:normal;font-variant-ligatures:normal;font-variant-numeric:normal"/>
    <path d="m903.23241 154.58463h-12.09658v-74.621097h42.10835v10.310165h-30.01177v23.325472h28.12327v10.3612h-28.12327z" style="font-feature-settings:normal;font-variant-caps:normal;font-variant-ligatures:normal;font-variant-numeric:normal"/>
   </g>
   <path d="m940.69609 131.66748v-10.20809h26.23477v10.20809z" style="font-feature-settings:normal;font-variant-caps:normal;font-variant-ligatures:normal;font-variant-numeric:normal"/>
   <path d="m971.11618 175.40912q-5.00196 0-8.37063-1.27601v-10.25913q4.2874 1.07185 7.4519 1.07185 10.00392 0 10.00392-12.65802v-72.324277h12.2497v71.915947q0 11.43306-5.46132 17.45583-5.41029 6.07381-15.87357 6.07381z" style="font-feature-settings:normal;font-variant-caps:normal;font-variant-ligatures:normal;font-variant-numeric:normal"/>
   <path d="m1011.7954 154.58463v-74.621097h12.1987v74.621097z" style="font-feature-settings:normal;font-variant-caps:normal;font-variant-ligatures:normal;font-variant-numeric:normal"/>
   <path d="m1069.42 154.58463h-12.1986v-64.157811h-21.9474v-10.463286h56.0934v10.463286h-21.9474z" style="font-feature-settings:normal;font-variant-caps:normal;font-variant-ligatures:normal;font-variant-numeric:normal"/>
  </g>
  <g fill="#d33682" style="font-feature-settings:normal;font-variant-caps:normal;font-variant-ligatures:normal;font-variant-numeric:normal" aria-label="YAMA">
   <path d="m936.39139 321.34383 18.42781-35.52414h13.84748l-25.93741 47.66732v30.19817h-12.78229v-29.7721l-25.83089-48.09339h13.84749z" style="font-feature-settings:normal;font-variant-caps:normal;font-variant-ligatures:normal;font-variant-numeric:normal"/>
   <path d="m1027.2522 363.68518-7.7759-21.62338h-29.77208l-7.61612 21.62338h-13.42141l29.13298-78.18504h13.84753l29.1329 78.18504zm-11.1312-32.59485-7.2966-21.19731q-0.7989-2.13038-2.2369-6.71071-1.3848-4.58032-1.9173-6.7107-1.4381 6.55092-4.2076 14.32682l-7.03021 20.2919z" style="font-feature-settings:normal;font-variant-caps:normal;font-variant-ligatures:normal;font-variant-numeric:normal"/>
   <path d="m1084.8258 363.68518-22.5821-65.02993h-0.426q0.9054 14.4866 0.9054 27.16238v37.86755h-11.5573v-77.86549h17.9484l21.6234 61.94088h0.3196l22.2625-61.94088h18.0017v77.86549h-12.2497v-38.50667q0-5.80529 0.2663-15.12571 0.3196-9.32043 0.5326-11.29103h-0.4261l-23.3809 64.92341z" style="font-feature-settings:normal;font-variant-caps:normal;font-variant-ligatures:normal;font-variant-numeric:normal"/>
   <path d="m1200.2393 363.68518-7.7759-21.62338h-29.7721l-7.6161 21.62338h-13.4215l29.133-78.18504h13.8475l29.133 78.18504zm-11.1313-32.59485-7.2965-21.19731q-0.7989-2.13038-2.2369-6.71071-1.3848-4.58032-1.9174-6.7107-1.438 6.55092-4.2075 14.32682l-7.0303 20.2919z" style="font-feature-settings:normal;font-variant-caps:normal;font-variant-ligatures:normal;font-variant-numeric:normal"/>
  </g>
  <g>
   <g style="font-feature-settings:normal;font-variant-caps:normal;font-variant-ligatures:normal;font-variant-numeric:normal" aria-label="ExecShield">
    <path d="m843.59278-56.46867h-42.21042v-74.62109h42.21042v10.31016h-30.01176v20.31409h28.12327v10.208083h-28.12327v23.427552h30.01176z" style="font-feature-settings:normal;font-variant-caps:normal;font-variant-ligatures:normal;font-variant-numeric:normal"/>
    <path d="m871.05253-85.306506-18.936-27.612864h13.67884l12.86218 19.752639 12.96427-19.752639h13.57675l-18.98704 27.612864 19.95681 28.837836h-13.57676l-13.93403-21.130733-13.88299 21.130733h-13.57675z" style="font-feature-settings:normal;font-variant-caps:normal;font-variant-ligatures:normal;font-variant-numeric:normal"/>
    <path d="m940.7227-55.447862q-13.16842 0-20.62032-7.656062-7.40087-7.707103-7.40087-21.181774 0-13.831953 6.89046-21.743222 6.89046-7.91126 18.936-7.91126 11.17785 0 17.65998 6.78837 6.48213 6.78838 6.48213 18.680798v6.482133h-37.61678q0.2552 8.217507 4.44051 12.658024 4.18532 4.389476 11.79034 4.389476 5.00196 0 9.28936-0.918728 4.33843-0.969768 9.28935-3.164506v9.74872q-4.38947 2.092657-8.88103 2.960344t-10.25913 0.867687zm-2.19473-49.407128q-5.71653 0-9.18728 3.62387-3.41971 3.623873-4.08323 10.56537h25.62229q-0.10208-6.992538-3.36867-10.56537-3.26659-3.62387-8.98311-3.62387z" style="font-feature-settings:normal;font-variant-caps:normal;font-variant-ligatures:normal;font-variant-numeric:normal"/>
    <path d="m999.0619-55.447862q-12.81114 0-19.49744-7.451901-6.63525-7.502941-6.63525-21.488016 0-14.240277 6.94149-21.896341 6.99254-7.65606 20.161-7.65606 8.932 0 16.0777 3.31763l-3.6239 9.64664q-7.605-2.96035-12.55591-2.96035-14.6486 0-14.6486 19.4464 0 9.493518 3.62387 14.291318 3.67491 4.746758 10.71849 4.746758 8.01335 0 15.15895-3.981152v10.463286q-3.2155 1.888495-6.8904 2.705142-3.6239 0.816646-8.83 0.816646z" style="font-feature-settings:normal;font-variant-caps:normal;font-variant-ligatures:normal;font-variant-numeric:normal"/>
    <g fill="#d33682">
     <path d="m1072.458-76.731716q0 9.952882-7.1967 15.618368t-19.8547 5.665486-20.7224-3.930112v-11.535134q5.104 2.398899 10.8205 3.776991 5.7676 1.378091 10.7185 1.378091 7.2478 0 10.6675-2.756183 3.4707-2.756182 3.4707-7.40086 0-4.185315-3.1645-7.094618-3.1645-2.909304-13.0663-6.890457-10.2081-4.134274-14.3934-9.442477-4.1853-5.308199-4.1853-12.760109 0-9.34039 6.6352-14.69964 6.6353-5.35924 17.8131-5.35924 10.7185 0 21.3349 4.69572l-3.879 9.95288q-9.9529-4.18531-17.7621-4.18531-5.9207 0-8.9831 2.60306-3.0625 2.55202-3.0625 6.78837 0 2.90931 1.225 5.00196 1.225 2.04162 4.0322 3.87908 2.8072 1.83745 10.106 4.848835 8.2175 3.419708 12.0456 6.380052 3.828 2.960344 5.6144 6.686295t1.7864 8.778952z" style="font-feature-settings:normal;font-variant-caps:normal;font-variant-ligatures:normal;font-variant-numeric:normal"/>
     <path d="m1135.3909-56.46867h-12.0456v-34.707484q0-6.533174-2.6541-9.748716-2.603-3.21555-8.3196-3.21555-7.5539 0-11.1268 4.542597-3.5218 4.491556-3.5218 15.107963v28.02119h-11.9945v-79.41889h11.9945v20.16096q0 4.84884-0.6124 10.36121h0.7656q2.4499-4.08323 6.7883-6.32901 4.3895-2.24578 10.2081-2.24578 20.5183 0 20.5183 20.671368z" style="font-feature-settings:normal;font-variant-caps:normal;font-variant-ligatures:normal;font-variant-numeric:normal"/>
     <path d="m1164.0756-56.46867h-11.9945v-56.4507h11.9945zm-12.7091-71.40555q0-3.21554 1.7354-4.95092 1.7864-1.73537 5.053-1.73537 3.1645 0 4.8999 1.73537 1.7864 1.73538 1.7864 4.95092 0 3.06243-1.7864 4.84884-1.7354 1.73538-4.8999 1.73538-3.2666 0-5.053-1.73538-1.7354-1.78641-1.7354-4.84884z" style="font-feature-settings:normal;font-variant-caps:normal;font-variant-ligatures:normal;font-variant-numeric:normal"/>
     <path d="m1205.9287-55.447862q-13.1684 0-20.6203-7.656062-7.4009-7.707103-7.4009-21.181774 0-13.831953 6.8905-21.743222 6.8905-7.91126 18.936-7.91126 11.1778 0 17.66 6.78837 6.4821 6.78838 6.4821 18.680798v6.482133h-37.6168q0.2552 8.217507 4.4405 12.658024 4.1854 4.389476 11.7904 4.389476 5.0019 0 9.2893-0.918728 4.3385-0.969768 9.2894-3.164506v9.74872q-4.3895 2.092657-8.881 2.960344-4.4916 0.867687-10.2592 0.867687zm-2.1947-49.407128q-5.7165 0-9.1873 3.62387-3.4197 3.623873-4.0832 10.56537h25.6223q-0.1021-6.992538-3.3687-10.56537-3.2666-3.62387-8.9831-3.62387z" style="font-feature-settings:normal;font-variant-caps:normal;font-variant-ligatures:normal;font-variant-numeric:normal"/>
     <path d="m1253.4984-56.46867h-11.9945v-79.41889h11.9945z" style="font-feature-settings:normal;font-variant-caps:normal;font-variant-ligatures:normal;font-variant-numeric:normal"/>
     <path d="m1289.7371-55.447862q-10.5654 0-16.4861-7.656062-5.9207-7.656063-5.9207-21.488016 0-13.882994 5.9718-21.5901 6.0227-7.75814 16.6391-7.75814 11.1268 0 16.9455 8.21751h0.6124q-0.8676-6.07381-0.8676-9.5956v-20.56929h12.0455v79.41889h-9.3914l-2.0927-7.400861h-0.5614q-5.7676 8.421669-16.8944 8.421669zm3.2155-9.697679q7.4009 0 10.7695-4.134274 3.3687-4.185314 3.4708-13.525711v-1.684334q0-10.667447-3.4708-15.159004-3.4707-4.491556-10.8716-4.491556-6.329 0-9.7487 5.155082-3.4197 5.104041-3.4197 14.597559 0 9.391437 3.3176 14.342358 3.3177 4.89988 9.9529 4.89988z" style="font-feature-settings:normal;font-variant-caps:normal;font-variant-ligatures:normal;font-variant-numeric:normal"/>
    </g>
   </g>
   <g transform="rotate(90)" style="font-feature-settings:normal;font-variant-caps:normal;font-variant-ligatures:normal;font-variant-numeric:normal" aria-label="security">
    <path d="m7.9594193-1277.8561q0 8.3737-6.0993195 12.8706-6.0993195 4.4453-17.470932 4.4453-11.423302 0-18.349648-3.4632v-10.4929q10.079384 4.6521 18.763161 4.6521 11.216545 0 11.216545-6.7713 0-2.171-1.2405396-3.6183-1.2405395-1.4473-4.0834427-2.9979-2.8429028-1.5507-7.9084398-3.5149-9.872627-3.825-13.387489-7.65-3.463173-3.825-3.463173-9.9243 0-7.3399 5.892563-11.3716 5.944252-4.0835 16.127014-4.0835 10.079384 0 19.073296 4.0835l-3.9283753 9.149q-9.2523574-3.825-15.558433-3.825-9.614182 0-9.614182 5.479 0 2.6879 2.481079 4.5487 2.532769 1.8608 10.9581 5.1172 7.0814132 2.7395 10.28614 5.0138 3.2047272 2.2744 4.7554016 5.2723 1.5506745 2.9463 1.5506745 7.0814z" style="font-feature-settings:normal;font-variant-caps:normal;font-variant-ligatures:normal;font-variant-numeric:normal"/>
    <path d="m46.002632-1260.5402q-13.3358 0-20.882416-7.7534-7.494926-7.805-7.494926-21.451 0-14.0077 6.978035-22.0195 6.978035-8.0119 19.176674-8.0119 11.319923 0 17.884445 6.8747t6.564522 18.9182v6.5646h-38.094902q0.258445 8.3219 4.496956 12.8189 4.23851 4.4452 11.940193 4.4452 5.065536 0 9.407425-0.9304 4.393577-0.9821 9.407425-3.2047v9.8726q-4.445267 2.1193-8.993912 2.998t-10.389519 0.8787zm-2.222633-50.0351q-5.789185 0-9.304047 3.6699-3.463173 3.67-4.135132 10.6997h25.947953q-0.103379-7.0814-3.411484-10.6997-3.308106-3.6699-9.09729-3.6699z" style="font-feature-settings:normal;font-variant-caps:normal;font-variant-ligatures:normal;font-variant-numeric:normal"/>
    <path d="m105.08333-1260.5402q-12.973978 0-19.745256-7.5466-6.71959-7.5983-6.71959-21.7611 0-14.4213 7.029725-22.1747 7.081413-7.7534 20.417211-7.7534 9.0456 0 16.28208 3.3598l-3.66993 9.7693q-7.70168-2.998-12.71553-2.998-14.834782 0-14.834782 19.6936 0 9.6142 3.66993 14.4729 3.721618 4.8071 10.854722 4.8071 8.1152 0 15.35168-4.0317v10.5963q-3.25642 1.9125-6.97804 2.7395-3.66993 0.827-8.94222 0.827z" style="font-feature-settings:normal;font-variant-caps:normal;font-variant-ligatures:normal;font-variant-numeric:normal"/>
    <path d="m174.86368-1261.574-1.70574-7.4949h-0.62027q-2.53277 3.9801-7.23648 6.2544-4.65203 2.2743-10.64797 2.2743-10.38952 0-15.50674-5.1689-5.11723-5.1689-5.11723-15.6618v-37.3713h12.25033v35.252q0 6.5645 2.68783 9.8727 2.68784 3.2564 8.42534 3.2564 7.64999 0 11.21654-4.5487 3.61824-4.6003 3.61824-15.3517v-28.4807h12.19864v57.1682z" style="font-feature-settings:normal;font-variant-caps:normal;font-variant-ligatures:normal;font-variant-numeric:normal"/>
    <path d="m230.73965-1319.776q3.66993 0 6.04763 0.5169l-1.18885 11.32q-2.58446-0.6203-5.37567-0.6203-7.28817 0-11.83682 4.7554-4.49696 4.7554-4.49696 12.3537v29.8763h-12.14695v-57.1682h9.51081l1.60236 10.0794h0.62027q2.8429-5.1172 7.39155-8.1152 4.60033-2.998 9.87263-2.998z" style="font-feature-settings:normal;font-variant-caps:normal;font-variant-ligatures:normal;font-variant-numeric:normal"/>
    <path d="m259.58219-1261.574h-12.14695v-57.1682h12.14695zm-12.8706-72.3131q0-3.2564 1.75743-5.0138 1.80912-1.7575 5.11723-1.7575 3.20473 0 4.96216 1.7575 1.80912 1.7574 1.80912 5.0138 0 3.1014-1.80912 4.9105-1.75743 1.7574-4.96216 1.7574-3.30811 0-5.11723-1.7574-1.75743-1.8091-1.75743-4.9105z" style="font-feature-settings:normal;font-variant-caps:normal;font-variant-ligatures:normal;font-variant-numeric:normal"/>
    <path d="m298.29736-1270.3611q4.44527 0 8.89054-1.3956v9.1489q-2.01588 0.8788-5.22061 1.4473-3.15304 0.6203-6.56452 0.6203-17.26417 0-17.26417-18.1946v-30.8067h-7.80507v-5.3757l8.37365-4.4452 4.13513-12.0953h7.49492v12.7155h16.28209v9.2007h-16.28209v30.6q0 4.3935 2.17095 6.5128 2.22263 2.0676 5.78918 2.0676z" style="font-feature-settings:normal;font-variant-caps:normal;font-variant-ligatures:normal;font-variant-numeric:normal"/>
    <path d="m309.87573-1318.7422h13.23242l11.63006 32.4091q2.63615 6.9264 3.51486 13.0257h0.41352q0.4652-2.8429 1.70574-6.8747 1.24054-4.0834 13.12904-38.5601h13.12905l-24.44897 64.7665q-6.6679 17.8328-22.22633 17.8328-4.03176 0-7.85675-0.8787v-9.6142q2.73952 0.6203 6.25438 0.6203 8.78716 0 12.35371-10.1828l2.11925-5.3757z" style="font-feature-settings:normal;font-variant-caps:normal;font-variant-ligatures:normal;font-variant-numeric:normal"/>
   </g>
   <g style="font-feature-settings:normal;font-variant-caps:normal;font-variant-ligatures:normal;font-variant-numeric:normal" aria-label="sysctl">
    <path d="m835.17921 236.27262q0 4.67352-3.40418 7.18338-3.40417 2.48101-9.75094 2.48101-6.37561 0-10.24137-1.93288v-5.85633q5.62554 2.5964 10.47216 2.5964 6.26022 0 6.26022-3.77921 0-1.21165-0.69237-2.01942-0.69238-0.80777-2.27907-1.67324t-4.41389-1.96173q-5.51014-2.13482-7.47187-4.26964-1.93288-2.13482-1.93288-5.539 0-4.09655 3.28878-6.34676 3.31763-2.27907 9.00087-2.27907 5.62554 0 10.64525 2.27907l-2.19251 5.10626q-5.16396-2.13482-8.68353-2.13482-5.3659 0-5.3659 3.05799 0 1.50014 1.38474 2.5387 1.4136 1.03856 6.11598 2.85605 3.9523 1.52899 5.74094 2.79834 1.78863 1.26936 2.6541 2.94259 0.86547 1.64439 0.86547 3.95231z" style="font-feature-settings:normal;font-variant-caps:normal;font-variant-ligatures:normal;font-variant-numeric:normal"/>
    <path d="m837.63136 213.45311h7.38533l6.49101 18.08828q1.4713 3.86576 1.96173 7.26993h0.23079q0.25964-1.58669 0.95202-3.8369 0.69237-2.27907 7.32762-21.52131h7.32763l-13.64554 36.14771q-3.72151 9.95289-12.40504 9.95289-2.25022 0-4.38504-0.49044v-5.3659q1.52899 0.34619 3.49072 0.34619 4.90432 0 6.89489-5.68324l1.18281-3.00029z" style="font-feature-settings:normal;font-variant-caps:normal;font-variant-ligatures:normal;font-variant-numeric:normal"/>
    <path d="m895.64657 236.27262q0 4.67352-3.40418 7.18338-3.40417 2.48101-9.75094 2.48101-6.37561 0-10.24137-1.93288v-5.85633q5.62554 2.5964 10.47216 2.5964 6.26022 0 6.26022-3.77921 0-1.21165-0.69237-2.01942-0.69238-0.80777-2.27907-1.67324t-4.41388-1.96173q-5.51015-2.13482-7.47188-4.26964-1.93288-2.13482-1.93288-5.539 0-4.09655 3.28878-6.34676 3.31763-2.27907 9.00087-2.27907 5.62554 0 10.64526 2.27907l-2.19252 5.10626q-5.16396-2.13482-8.68353-2.13482-5.3659 0-5.3659 3.05799 0 1.50014 1.38475 2.5387 1.41359 1.03856 6.11597 2.85605 3.9523 1.52899 5.74094 2.79834 1.78863 1.26936 2.6541 2.94259 0.86547 1.64439 0.86547 3.95231z" style="font-feature-settings:normal;font-variant-caps:normal;font-variant-ligatures:normal;font-variant-numeric:normal"/>
    <path d="m915.81197 245.93701q-7.24108 0-11.02029-4.21194-3.75036-4.2408-3.75036-12.14541 0-8.04885 3.92345-12.37619 3.9523-4.32734 11.39533-4.32734 5.04856 0 9.08741 1.87518l-2.04827 5.45245q-4.29849-1.67324-7.09684-1.67324-8.27964 0-8.27964 10.99145 0 5.3659 2.04827 8.0777 2.07712 2.68295 6.05828 2.68295 4.52928 0 8.56813-2.25022v5.91403q-1.81748 1.06741-3.89461 1.529-2.04827 0.46158-4.99086 0.46158z" style="font-feature-settings:normal;font-variant-caps:normal;font-variant-ligatures:normal;font-variant-numeric:normal"/>
    <path d="m944.14162 240.45571q2.48101 0 4.96202-0.77892v5.10626q-1.12511 0.49043-2.91374 0.80777-1.75979 0.34619-3.66382 0.34619-9.63554 0-9.63554-10.15482v-17.19397h-4.35619v-3.00029l4.67353-2.48101 2.30791-6.75065h4.1831v7.09684h9.08741v5.13511h-9.08741v17.07857q0 2.45216 1.21165 3.63497 1.24051 1.15395 3.23108 1.15395z" style="font-feature-settings:normal;font-variant-caps:normal;font-variant-ligatures:normal;font-variant-numeric:normal"/>
    <path d="m962.22991 245.36003h-6.7795v-44.88894h6.7795z" style="font-feature-settings:normal;font-variant-caps:normal;font-variant-ligatures:normal;font-variant-numeric:normal"/>
   </g>
   <g style="font-feature-settings:normal;font-variant-caps:normal;font-variant-ligatures:normal;font-variant-numeric:normal" aria-label="hardening">
    <path d="m964.19447 36.447796h-7.33207v-21.126295q0-3.976715-1.61554-5.9340037-1.58447-1.9572891-5.0641-1.9572891-4.59807 0-6.77284 2.7650588-2.14369 2.733992-2.14369 9.196152v17.056377h-7.301v-48.341934h7.301v12.271892q0 2.9514677-0.37282 6.3068204h0.46602q1.49127-2.4854464 4.13205-3.852442 2.67186-1.3669956 6.21362-1.3669956 12.48937 0 12.48937 12.582572z" style="font-feature-settings:normal;font-variant-caps:normal;font-variant-ligatures:normal;font-variant-numeric:normal"/>
    <path d="m995.85284 36.447796-1.4602-4.784485h-0.24854q-2.48545 3.137877-5.00196 4.287396-2.51652 1.11845-6.46216 1.11845-5.0641 0-7.92236-2.733991-2.8272-2.733991-2.8272-7.735952 0-5.312642 3.94565-8.015565 3.94564-2.702923 12.02334-2.951467l5.93401-0.186409v-1.833017q0-3.293216-1.55341-4.9087565-1.52233-1.6466083-4.75341-1.6466083-2.64079 0-5.0641 0.776702-2.42331 0.7767021-4.66021 1.8330168l-2.36118-5.2194376q2.79613-1.4601998 6.12042-2.2058338 3.32428-0.776702 6.27575-0.776702 6.55536 0 9.87965 2.8582635 3.35537 2.8582634 3.35537 8.9786749v23.145721zm-10.87383-4.970893q3.97672 0 6.36896-2.205834 2.42331-2.236902 2.42331-6.244684v-2.982536l-4.41167 0.186409q-5.1573 0.186408-7.51847 1.739812-2.33011 1.522336-2.33011 4.69128 0 2.299038 1.367 3.57283 1.36699 1.242723 4.10098 1.242723z" style="font-feature-settings:normal;font-variant-caps:normal;font-variant-ligatures:normal;font-variant-numeric:normal"/>
    <path d="m1028.6918 1.4651366q2.2058 0 3.635 0.3106808l-0.7146 6.8039098q-1.5534-0.372817-3.2311-0.372817-4.3806 0-7.1146 2.8582638-2.7029 2.858263-2.7029 7.425271v17.957351h-7.301v-34.361298h5.7165l0.9631 6.0582758h0.3729q1.7087-3.07574 4.4427-4.8776887 2.7651-1.8019487 5.934-1.8019487z" style="font-feature-settings:normal;font-variant-caps:normal;font-variant-ligatures:normal;font-variant-numeric:normal"/>
    <path d="m1050.3152 37.069157q-6.4311 0-10.035-4.660212t-3.6039-13.079662q0-8.450518 3.635-13.141798 3.666-4.7223483 10.1282-4.7223483 6.7728 0 10.3146 5.0019611h0.3728q-0.5282-3.6971017-0.5282-5.8407993v-12.520436h7.3321v48.341934h-5.7165l-1.2738-4.504872h-0.3418q-3.5107 5.126233-10.2835 5.126233zm1.9573-5.902935q4.5048 0 6.5553-2.516514 2.0505-2.547583 2.1127-8.233042v-1.025247q0-6.493229-2.1127-9.22722-2.1126-2.7339908-6.6175-2.7339908-3.8524 0-5.934 3.1378758-2.0815 3.106808-2.0815 8.885472 0 5.716526 2.0194 8.73013 2.0194 2.982536 6.0583 2.982536z" style="font-feature-settings:normal;font-variant-caps:normal;font-variant-ligatures:normal;font-variant-numeric:normal"/>
    <path d="m1093.3756 37.069157q-8.0156 0-12.5515-4.660212-4.5049-4.69128-4.5049-12.893253 0-8.41945 4.1942-13.235003 4.1942-4.8155526 11.5262-4.8155526 6.8039 0 10.7496 4.1320548 3.9456 4.1320548 3.9456 11.370918v3.945646h-22.8971q0.1553 5.001961 2.7029 7.704884 2.5476 2.671855 7.1767 2.671855 3.0447 0 5.6544-0.559225 2.6408-0.590294 5.6544-1.926221v5.934003q-2.6719 1.273792-5.4059 1.801949-2.7339 0.528157-6.2446 0.528157zm-1.336-30.073902q-3.4796 0-5.5922 2.2058338-2.0816 2.2058342-2.4855 6.4310932h15.5962q-0.062-4.256328-2.0505-6.4310932-1.9883-2.2058338-5.468-2.2058338z" style="font-feature-settings:normal;font-variant-caps:normal;font-variant-ligatures:normal;font-variant-numeric:normal"/>
    <path d="m1145.2592 36.447796h-7.332v-21.126295q0-3.976715-1.6156-5.9340037-1.5844-1.9572891-5.0641-1.9572891-4.6291 0-6.7728 2.7339908-2.1437 2.733991-2.1437 9.165084v17.118513h-7.301v-34.361298h5.7165l1.0253 4.5048718h0.3728q1.5534-2.4543784 4.4117-3.7903059 2.8582-1.3359275 6.3378-1.3359275 12.3651 0 12.3651 12.582572z" style="font-feature-settings:normal;font-variant-caps:normal;font-variant-ligatures:normal;font-variant-numeric:normal"/>
    <path d="m1162.7195 36.447796h-7.301v-34.361298h7.301zm-7.7359-43.464246q0-1.9572891 1.0563-3.0136035 1.0873-1.056315 3.0757-1.056315 1.9262 0 2.9825 1.056315 1.0874 1.0563144 1.0874 3.0136035 0 1.8640849-1.0874 2.9514677-1.0563 1.0563148-2.9825 1.0563148-1.9884 0-3.0757-1.0563148-1.0563-1.0873828-1.0563-2.9514677z" style="font-feature-settings:normal;font-variant-caps:normal;font-variant-ligatures:normal;font-variant-numeric:normal"/>
    <path d="m1203.4187 36.447796h-7.3321v-21.126295q0-3.976715-1.6155-5.9340037-1.5845-1.9572891-5.0641-1.9572891-4.6292 0-6.7728 2.7339908-2.1437 2.733991-2.1437 9.165084v17.118513h-7.301v-34.361298h5.7165l1.0252 4.5048718h0.3728q1.5534-2.4543784 4.4117-3.7903059t6.3379-1.3359275q12.3651 0 12.3651 12.582572z" style="font-feature-settings:normal;font-variant-caps:normal;font-variant-ligatures:normal;font-variant-numeric:normal"/>
    <path d="m1242.5955 2.0864982v4.0077825l-5.8718 1.0873828q0.8077 1.0873829 1.3359 2.671855 0.5282 1.5844725 0.5282 3.3553525 0 5.312642-3.6661 8.357314-3.666 3.044672-10.0971 3.044672-1.6466 0-2.9825-0.248545-2.3612 1.4602-2.3612 3.417489 0 1.180587 1.0874 1.770881 1.1184 0.590293 4.0699 0.590293h5.9961q5.6855 0 8.637 2.423311 2.9514 2.42331 2.9514 6.990318 0 5.840799-4.8155 9.009743-4.8156 3.168945-13.9185 3.168945-7.0214 0-10.7185-2.485447-3.6971-2.485446-3.6971-7.083522 0-3.168944 1.9883-5.34371 2.0195-2.143698 5.6234-2.982536-1.4602-0.621362-2.4233-1.988357-0.9321-1.398064-0.9321-2.9204 0-1.926221 1.0874-3.262148 1.0874-1.335928 3.2311-2.640787-2.6719-1.149519-4.3496-3.72817-1.6466-2.609719-1.6466-6.089344 0-5.5922543 3.5107-8.6679944 3.5418-3.07574 10.0661-3.07574 1.4602 0 3.0447 0.2174766 1.6155 0.1864085 2.4233 0.403885zm-26.9981 39.705008q0 2.361174 2.1126 3.634965 2.1437 1.273792 5.9962 1.273792 5.965 0 8.8854-1.708745 2.9204-1.708744 2.9204-4.53594 0-2.236902-1.6155-3.200012-1.5845-0.932042-5.934-0.932042h-5.5301q-3.1379 0-5.002 1.460199-1.833 1.491268-1.833 4.007783zm3.1379-28.582635q0 3.231081 1.6466 4.970893 1.6776 1.739813 4.7845 1.739813 6.3378 0 6.3378-6.772842 0-3.3553527-1.5844-5.1573014-1.5534-1.8330167-4.7534-1.8330167-3.169 0-4.8156 1.8019487-1.6155 1.8019487-1.6155 5.2505054z" style="font-feature-settings:normal;font-variant-caps:normal;font-variant-ligatures:normal;font-variant-numeric:normal"/>
   </g>
  </g>
 </g>
</svg>
