<?xml version="1.0" encoding="UTF-8"?>
<svg version="1.1" viewBox="0 0 135 135" xmlns="http://www.w3.org/2000/svg" xmlns:cc="http://creativecommons.org/ns#" xmlns:dc="http://purl.org/dc/elements/1.1/" xmlns:rdf="http://www.w3.org/1999/02/22-rdf-syntax-ns#">
 <metadata>
  <rdf:RDF>
   <cc:Work rdf:about="">
    <dc:format>image/svg+xml</dc:format>
    <dc:type rdf:resource="http://purl.org/dc/dcmitype/StillImage"/>
    <dc:title/>
   </cc:Work>
  </rdf:RDF>
 </metadata>
 <g transform="matrix(.923 0 0 .923 4.72 90.2)">
  <g transform="matrix(3.11 0 0 3.11 .372 -91.7)">
   <g transform="translate(0 .369)" fill="#454545" style="font-feature-settings:normal;font-variant-caps:normal;font-variant-ligatures:normal;font-variant-numeric:normal" aria-label="K">
    <g transform="matrix(1.02 0 0 1.02 -.103 .076)">
     <g transform="matrix(.963 0 0 .963 .595 .707)" fill="#d33682" stroke-width=".265" style="font-feature-settings:normal;font-variant-caps:normal;font-variant-ligatures:normal;font-variant-numeric:normal" aria-label="motoko">
      <path d="m11.8 43.3v-2.39q0-0.446-0.124-0.667-0.12-0.225-0.384-0.225-0.349 0-0.512 0.298-0.163 0.298-0.163 0.934v2.05h-1.52v-2.39q0-0.446-0.116-0.667-0.116-0.225-0.376-0.225-0.357 0-0.519 0.318-0.163 0.318-0.163 1.04v1.92h-1.52v-4.39h1.14l0.19 0.543h0.0891q0.174-0.302 0.504-0.461 0.333-0.159 0.756-0.159 0.95 0 1.33 0.577h0.12q0.186-0.271 0.515-0.422 0.333-0.155 0.733-0.155 0.779 0 1.15 0.399t0.372 1.21v2.86z" style="font-feature-settings:normal;font-variant-caps:normal;font-variant-ligatures:normal;font-variant-numeric:normal"/>
      <path d="m18.5 41.1q0 1.08-0.581 1.68-0.577 0.601-1.62 0.601-1 0-1.59-0.616-0.589-0.616-0.589-1.67 0-1.07 0.577-1.67 0.581-0.597 1.63-0.597 0.647 0 1.14 0.275t0.764 0.791q0.271 0.512 0.271 1.2zm-2.84 0q0 0.566 0.151 0.864 0.151 0.295 0.508 0.295 0.353 0 0.496-0.295 0.147-0.298 0.147-0.864 0-0.562-0.147-0.849t-0.504-0.287q-0.349 0-0.5 0.287-0.151 0.283-0.151 0.849z" style="font-feature-settings:normal;font-variant-caps:normal;font-variant-ligatures:normal;font-variant-numeric:normal"/>
      <path d="m21.5 42.2q0.306 0 0.733-0.151v1.1q-0.306 0.132-0.585 0.186-0.275 0.0581-0.647 0.0581-0.764 0-1.1-0.372-0.337-0.376-0.337-1.15v-1.81h-0.531v-0.616l0.674-0.477 0.391-0.922h0.992v0.88h1.08v1.14h-1.08v1.71q0 0.426 0.411 0.426z" style="font-feature-settings:normal;font-variant-caps:normal;font-variant-ligatures:normal;font-variant-numeric:normal"/>
      <path d="m27.2 41.1q0 1.08-0.581 1.68-0.577 0.601-1.62 0.601-1 0-1.59-0.616-0.589-0.616-0.589-1.67 0-1.07 0.577-1.67 0.581-0.597 1.63-0.597 0.647 0 1.14 0.275t0.764 0.791q0.271 0.512 0.271 1.2zm-2.84 0q0 0.566 0.151 0.864 0.151 0.295 0.508 0.295 0.353 0 0.496-0.295 0.147-0.298 0.147-0.864 0-0.562-0.147-0.849t-0.504-0.287q-0.349 0-0.5 0.287-0.151 0.283-0.151 0.849z" style="font-feature-settings:normal;font-variant-caps:normal;font-variant-ligatures:normal;font-variant-numeric:normal"/>
      <path d="m29.5 40.8q0.275-0.438 0.469-0.682l0.984-1.24h1.69l-1.52 1.87 1.62 2.52h-1.73l-0.961-1.57-0.492 0.376v1.2h-1.52v-6.03h1.52v2.37q0 0.608-0.0853 1.19z" style="font-feature-settings:normal;font-variant-caps:normal;font-variant-ligatures:normal;font-variant-numeric:normal"/>
      <path d="m37.5 41.1q0 1.08-0.581 1.68-0.577 0.601-1.62 0.601-1 0-1.59-0.616-0.589-0.616-0.589-1.67 0-1.07 0.577-1.67 0.581-0.597 1.63-0.597 0.647 0 1.14 0.275t0.764 0.791q0.271 0.512 0.271 1.2zm-2.84 0q0 0.566 0.151 0.864 0.151 0.295 0.508 0.295 0.353 0 0.496-0.295 0.147-0.298 0.147-0.864 0-0.562-0.147-0.849-0.147-0.287-0.504-0.287-0.349 0-0.5 0.287-0.151 0.283-0.151 0.849z" style="font-feature-settings:normal;font-variant-caps:normal;font-variant-ligatures:normal;font-variant-numeric:normal"/>
     </g>
     <g transform="translate(0 -.545)" fill="#454545" style="font-feature-settings:normal;font-variant-caps:normal;font-variant-ligatures:normal;font-variant-numeric:normal" aria-label="K">
      <path d="m36.4 36.1h-8.88l-9.66-15.5-3.3 2.37v13.2h-7.82v-36.9h7.82v16.9l3.08-4.34 9.99-12.5h8.68l-12.9 16.3z" fill="#454545" stroke-width=".0244" style="font-feature-settings:normal;font-variant-caps:normal;font-variant-ligatures:normal;font-variant-numeric:normal"/>
     </g>
    </g>
   </g>
  </g>
 </g>
</svg>
