<?xml version="1.0" encoding="UTF-8"?>
<svg width="460" height="60" version="1.1" viewBox="0 0 122.2658 15.9" xmlns="http://www.w3.org/2000/svg" xmlns:cc="http://creativecommons.org/ns#" xmlns:dc="http://purl.org/dc/elements/1.1/" xmlns:rdf="http://www.w3.org/1999/02/22-rdf-syntax-ns#">
 <metadata>
  <rdf:RDF>
   <cc:Work rdf:about="">
    <dc:format>image/svg+xml</dc:format>
    <dc:type rdf:resource="http://purl.org/dc/dcmitype/StillImage"/>
    <dc:title/>
    <dc:creator>
     <cc:Agent>
      <dc:title>Cagatay Aydin</dc:title>
     </cc:Agent>
    </dc:creator>
    <dc:publisher>
     <cc:Agent>
      <dc:title>https://www.kmotoko.com</dc:title>
     </cc:Agent>
    </dc:publisher>
   </cc:Work>
  </rdf:RDF>
 </metadata>
 <g stroke-width=".33100727" style="font-feature-settings:normal;font-variant-caps:normal;font-variant-ligatures:normal;font-variant-numeric:normal" aria-label="kmotoko's wall">
  <path d="m4.2087425 9.1912774 1.0318116-1.3188569 2.4282485-2.637714h2.6687454l-3.4445437 3.7626214 3.6540097 4.9108031h-2.7308098l-2.4980703-3.514366-1.0162956 0.814588v2.699778h-2.3661846v-12.071421h2.3661846v5.3840397l-0.1241277 1.9705274z" fill="#454545"/>
  <g fill="#d33682">
   <path d="m19.569547 13.908131h-2.366184v-5.0659628q0-0.9387158-0.318077-1.4041947-0.31032-0.473237-0.985264-0.473237-0.907684 0-1.318857 0.6671865t-0.411173 2.195509v4.080699h-2.366185v-8.6734245h1.80761l0.318077 1.1093915h0.131886q0.349109-0.5973647 1.008538-0.9309579 0.659428-0.3413512 1.512806-0.3413512 1.947254 0 2.637714 1.2723091h0.209466q0.349109-0.6051227 1.024053-0.9387159 0.682703-0.3335932 1.536081-0.3335932 1.474017 0 2.226541 0.7602822 0.760282 0.7525243 0.760282 2.4204905v5.6555694h-2.373942v-5.0659628q0-0.9387158-0.318078-1.4041947-0.310319-0.473237-0.985263-0.473237-0.868894 0-1.303341 0.6206386-0.42669 0.6206386-0.42669 1.9705275z"/>
   <path d="m29.298058 9.5559026q0 1.2878254 0.418931 1.9472534 0.426689 0.659429 1.380921 0.659429 0.946474 0 1.357647-0.651671 0.418931-0.659428 0.418931-1.9550114 0-1.287825-0.418931-1.9317376-0.418931-0.6439125-1.373163-0.6439125-0.946474 0-1.365405 0.6439125-0.418931 0.6361546-0.418931 1.9317376zm5.99692 0q0 2.1179294-1.117149 3.3126584t-3.110951 1.194729q-1.249035 0-2.203267-0.543058-0.954232-0.550817-1.466258-1.574871-0.512027-1.024054-0.512027-2.3894584 0-2.1256871 1.109391-3.3049004 1.109392-1.1792133 3.118709-1.1792133 1.249035 0 2.203267 0.5430587 0.954232 0.5430588 1.466259 1.5593545 0.512026 1.0162956 0.512026 2.3817005z"/>
   <path d="m40.903998 12.178101q0.620639 0 1.489533-0.27153v1.761062q-0.88441 0.395657-2.172235 0.395657-1.419711 0-2.071382-0.713734-0.643912-0.721492-0.643912-2.156719v-4.1815526h-1.132665v-1.0007797l1.303341-0.7913142 0.682702-1.8308838h1.512807v1.8463998h2.428248v1.7765779h-2.428248v4.1815526q0 0.504269 0.279287 0.744766 0.287045 0.240498 0.752524 0.240498z"/>
   <path d="m46.024266 9.5559026q0 1.2878254 0.418931 1.9472534 0.426689 0.659429 1.380921 0.659429 0.946474 0 1.357647-0.651671 0.418931-0.659428 0.418931-1.9550114 0-1.287825-0.418931-1.9317376-0.418931-0.6439125-1.373163-0.6439125-0.946474 0-1.365405 0.6439125-0.418931 0.6361546-0.418931 1.9317376zm5.99692 0q0 2.1179294-1.117149 3.3126584-1.11715 1.194729-3.110951 1.194729-1.249035 0-2.203267-0.543058-0.954232-0.550817-1.466259-1.574871t-0.512027-2.3894584q0-2.1256871 1.109392-3.3049004 1.109391-1.1792133 3.118709-1.1792133 1.249035 0 2.203267 0.5430587 0.954232 0.5430588 1.466258 1.5593545 0.512027 1.0162956 0.512027 2.3817005z"/>
   <path d="m56.249285 9.1912774 1.031812-1.3188569 2.428248-2.637714h2.668746l-3.444544 3.7626214 3.65401 4.9108031h-2.73081l-2.49807-3.514366-1.016296 0.814588v2.699778h-2.366185v-12.071421h2.366185v5.3840397l-0.124128 1.9705274z"/>
   <path d="m65.729542 9.5559026q0 1.2878254 0.418931 1.9472534 0.426689 0.659429 1.380921 0.659429 0.946474 0 1.357647-0.651671 0.418931-0.659428 0.418931-1.9550114 0-1.287825-0.418931-1.9317376-0.418931-0.6439125-1.373163-0.6439125-0.946474 0-1.365405 0.6439125-0.418931 0.6361546-0.418931 1.9317376zm5.996921 0q0 2.1179294-1.11715 3.3126584-1.117149 1.194729-3.110951 1.194729-1.249035 0-2.203267-0.543058-0.954231-0.550817-1.466258-1.574871t-0.512027-2.3894584q0-2.1256871 1.109391-3.3049004 1.109392-1.1792133 3.118709-1.1792133 1.249035 0 2.203267 0.5430587 0.954232 0.5430588 1.466259 1.5593545 0.512027 1.0162956 0.512027 2.3817005z"/>
  </g>
  <g fill="#454545">
   <path d="m75.636484 2.5659606-0.318077 4.0962146h-1.528322l-0.318078-4.0962146z"/>
   <path d="m83.953043 11.332481q0 1.334372-0.930957 2.032591-0.9232 0.698218-2.7696 0.698218-0.946474 0-1.61366-0.131885-0.667187-0.124128-1.249036-0.372384v-1.955011q0.659429 0.310319 1.481775 0.519785 0.830104 0.209465 1.458501 0.209465 1.287825 0 1.287825-0.744766 0-0.279287-0.170676-0.449963-0.170675-0.178434-0.589606-0.395657-0.418931-0.224982-1.11715-0.519785-1.00078-0.418931-1.474017-0.7757981-0.465478-0.3568672-0.682702-0.8145882-0.209465-0.4654789-0.209465-1.1404234 0-1.1559393 0.892167-1.7843359 0.899926-0.6361545 2.544619-0.6361545 1.567112 0 3.048887 0.6827024l-0.713735 1.7067561q-0.65167-0.2792874-1.218003-0.4577209-0.566333-0.1784336-1.155939-0.1784336-1.047328 0-1.047328 0.5663327 0 0.3180772 0.333593 0.5508167 0.341352 0.2327395 1.481775 0.6904604 1.016296 0.4111731 1.489533 0.7680403 0.473236 0.3568671 0.698218 0.822346 0.224981 0.465479 0.224981 1.109392z"/>
   <path d="m97.071785 13.908131-0.667186-3.033371-0.899926-3.8324436h-0.05431l-1.582624 6.8658146h-2.544618l-2.467039-8.6734245h2.358427l1.00078 3.8402012q0.240497 1.0318113 0.488752 2.8471793h0.04655q0.03103-0.589606 0.27153-1.869674l0.124127-0.659428 1.070602-4.1582785h2.606682l1.016296 4.1582785q0.03103 0.1706756 0.09309 0.5042688 0.06982 0.3335932 0.131886 0.7137342 0.06206 0.372383 0.108612 0.737009 0.05431 0.356867 0.06206 0.57409h0.04655q0.06982-0.558575 0.248255-1.528322 0.178434-0.9775061 0.256013-1.3188573l1.03957-3.8402012h2.319641l-2.498075 8.6734245z"/>
   <path d="m109.04235 13.908131-0.45772-1.179214h-0.0621q-0.59736 0.752525-1.23352 1.047328-0.6284 0.287045-1.64469 0.287045-1.24904 0-1.97053-0.713734-0.71373-0.713734-0.71373-2.032591 0-1.3809213 0.96199-2.0325918 0.96974-0.6594285 2.917-0.7292503l1.50505-0.046548v-0.380141q0-1.318857-1.34989-1.318857-1.03957 0-2.44377 0.6283966l-0.78355-1.5981444q1.49729-0.7835562 3.32041-0.7835562 1.74555 0 2.67651 0.7602823 0.93095 0.7602822 0.93095 2.3118787v5.7796971zm-0.69821-4.0186352-0.91545 0.031032q-1.03181 0.031032-1.53608 0.3723832-0.50426 0.341351-0.50426 1.03957 0 1.000779 1.14818 1.000779 0.82234 0 1.3111-0.473237 0.49651-0.473237 0.49651-1.256793z"/>
   <path d="m115.48924 13.908131h-2.36619v-12.071421h2.36619z"/>
   <path d="m120.33022 13.908131h-2.36618v-12.071421h2.36618z"/>
  </g>
 </g>
</svg>
